<?xml version="1.0" encoding="UTF-8" standalone="no"?>
<!-- Created with Inkscape (http://www.inkscape.org/) -->

<svg
   xmlns:dc="http://purl.org/dc/elements/1.1/"
   xmlns:cc="http://creativecommons.org/ns#"
   xmlns:rdf="http://www.w3.org/1999/02/22-rdf-syntax-ns#"
   xmlns:svg="http://www.w3.org/2000/svg"
   xmlns="http://www.w3.org/2000/svg"
   xmlns:sodipodi="http://sodipodi.sourceforge.net/DTD/sodipodi-0.dtd"
   xmlns:inkscape="http://www.inkscape.org/namespaces/inkscape"
   id="svg3197"
   version="1.1"
   inkscape:version="0.48.4 r9939"
   width="454.5375"
   height="114.225"
   xml:space="preserve"
   sodipodi:docname="CU-web-white.eps"><metadata
     id="metadata3203"><rdf:RDF><cc:Work
         rdf:about=""><dc:format>image/svg+xml</dc:format><dc:type
           rdf:resource="http://purl.org/dc/dcmitype/StillImage" /><dc:title></dc:title></cc:Work></rdf:RDF></metadata><defs
     id="defs3201"><clipPath
       clipPathUnits="userSpaceOnUse"
       id="clipPath3213"><path
         d="m 0,0 3636,0 0,913.777 -3636,0 L 0,0 z"
         id="path3215" /></clipPath><clipPath
       id="clipPath3385"
       clipPathUnits="userSpaceOnUse"><path
         id="path3387"
         d="m 0,0 3636,0 0,913.777 -3636,0 L 0,0 z" /></clipPath></defs><sodipodi:namedview
     pagecolor="#b51020"
     bordercolor="#666666"
     borderopacity="1"
     objecttolerance="10"
     gridtolerance="10"
     guidetolerance="10"
     inkscape:pageopacity="1"
     inkscape:pageshadow="2"
     inkscape:window-width="1389"
     inkscape:window-height="781"
     id="namedview3199"
     showgrid="false"
     showborder="false"
     borderlayer="true"
     inkscape:zoom="1.8101934"
     inkscape:cx="43398.834"
     inkscape:cy="-23316.125"
     inkscape:window-x="0"
     inkscape:window-y="0"
     inkscape:window-maximized="0"
     inkscape:current-layer="g3205" /><g
     id="g3205"
     inkscape:groupmode="layer"
     inkscape:label="ink_ext_XXXXXX"
     transform="matrix(1.25,0,0,-1.25,0,114.225)"><g
       id="g3207"
       transform="scale(0.1,0.1)"><g
         id="g3209"><g
           id="g3211"
           clip-path="url(#clipPath3213)"><path
             d="m 1323.11,354.082 c -18.54,-11.191 -50.19,-17.258 -69.68,-17.258 -76.74,0 -128.52,43.809 -128.52,116.367 0,36.75 14.38,65.86 39,85.993 23.97,19.808 56.57,30.695 92.38,30.695 29.74,0 58.51,-7.691 73.85,-13.121 -3.2,-15.02 -6.07,-31.953 -6.07,-48.59 l -9.91,0 0,23.027 c 0,8.946 -12.79,14.387 -27.49,19.817 -10.23,3.508 -23.98,5.429 -35.81,5.429 -60.1,0 -91.75,-43.796 -91.75,-98.136 0,-63.297 41.88,-104.223 105.18,-104.223 23.01,0 50.19,8.301 64.9,19.172 l 2.88,-3.195 -8.96,-15.977"
             style="fill:#ffffff;fill-opacity:1;fill-rule:nonzero;stroke:none"
             id="path3217" /><path
             d="m 1373.3,425.371 c 0,-33.555 12.15,-78.008 53.07,-78.008 29.09,0 41.56,29.11 41.56,58.828 0,41.235 -19.5,76.399 -50.2,76.399 -33.88,0 -44.43,-27.485 -44.43,-57.219 z m -29.73,-13.75 c 0,47.965 30.05,81.52 81.51,81.52 40.93,0 72.58,-31.961 72.58,-72.879 0,-48.895 -34.85,-83.438 -83.76,-83.438 -40.28,-1.289 -70.33,30.676 -70.33,74.797"
             style="fill:#ffffff;fill-opacity:1;fill-rule:nonzero;stroke:none"
             id="path3219" /><path
             d="m 1529.95,447.758 c 0,10.23 -0.65,17.262 -2.24,19.816 -1.92,2.559 -5.13,3.516 -11.84,3.516 l -11.82,0 0,8.945 c 18.87,1.918 38.04,7.992 49.88,13.106 l 2.87,-1.282 0,-32.273 0.64,0 17.27,20.449 c 7.66,9.266 18.53,13.106 26.84,13.106 5.44,0 12.16,-1.602 14.71,-3.524 l -2.87,-38.344 -6.72,0 c -3.52,7.672 -10.23,14.704 -21.73,14.704 -14.08,0 -28.14,-14.704 -28.14,-35.176 l 0,-54.961 c 0,-8.664 0.32,-15.051 1.6,-18.574 1.27,-2.864 6.07,-4.153 13.43,-4.465 l 16.62,-0.965 0,-9.59 c -16.62,0.32 -29.41,0.969 -45.09,0.969 -15.65,0 -28.44,-0.649 -39.95,-0.969 l 0,9.59 14.7,0.965 c 5.44,0.312 8.96,1.601 10.23,4.465 1.28,3.523 1.61,9.91 1.61,18.574 l 0,71.918"
             style="fill:#ffffff;fill-opacity:1;fill-rule:nonzero;stroke:none"
             id="path3221" /><path
             d="m 1679.56,375.84 c 0,-8.664 0.32,-15.051 1.59,-18.574 1.28,-2.864 4.8,-4.153 10.24,-4.465 l 14.38,-0.965 0,-9.59 c -11.19,0.32 -23.98,0.969 -39.64,0.969 -15.67,0 -28.45,-0.649 -39.64,-0.969 l 0,9.59 14.38,0.965 c 5.43,0.312 8.95,1.601 10.24,4.465 1.26,3.523 1.59,9.91 1.59,18.574 l 0,71.918 c 0,10.23 -0.64,17.262 -2.24,19.816 -1.92,2.559 -5.11,3.516 -11.83,3.516 l -11.82,0 0,8.945 c 18.86,1.918 38.04,7.992 49.86,13.106 l 2.89,-1.282 0,-27.164 0.63,0 23.66,20.45 c 7.03,6.082 13.11,7.996 25.9,7.996 37.4,0 52.74,-20.774 52.74,-55.633 l 0,-61.668 c 0,-8.664 0.32,-15.051 1.6,-18.574 1.28,-2.864 4.8,-4.153 10.23,-4.465 l 13.11,-0.965 0,-9.59 c -8,0.32 -17.26,0.969 -26.21,0.969 -8.96,0 -18.24,-0.649 -25.58,-0.969 l 0,90.789 c 0,26.551 -15.02,40.613 -36.76,40.613 -19.5,0 -39.32,-16.937 -39.32,-30.046 l 0,-67.762"
             style="fill:#ffffff;fill-opacity:1;fill-rule:nonzero;stroke:none"
             id="path3223" /><path
             d="m 1844.51,429.531 c 26.21,-2.89 53.06,-2.246 76.09,-0.968 0,29.742 -10.87,54.027 -33.9,54.027 -24.62,0 -43.79,-18.211 -42.19,-53.059 z m 104.54,5.106 c 0,-4.473 0,-8.934 -0.65,-13.418 -19.18,-3.203 -38.67,-4.473 -57.86,-4.473 l -46.67,0 c 0,-37.391 18.54,-62.988 57.86,-62.988 15.34,0 27.49,7.676 39.64,15.019 l 4.15,-3.191 -6.39,-10.859 c -2.24,-3.848 -29.4,-17.903 -51.15,-17.903 -48.27,0 -73.84,30.676 -73.84,73.84 0,31.008 8.31,49.559 23.01,61.059 6.08,4.797 12.8,9.593 19.84,12.789 11.17,5.105 20.45,8.629 31.32,8.629 34.84,0 60.74,-22.375 60.74,-58.504"
             style="fill:#ffffff;fill-opacity:1;fill-rule:nonzero;stroke:none"
             id="path3225" /><path
             d="m 1981.01,541.418 c 0,7.352 -0.96,13.102 -7.99,13.102 l -17.91,0 0,8.953 c 16.96,2.55 33.9,5.429 49.89,11.836 l 2.86,-2.559 0,-196.91 c 0,-8.664 0.32,-15.051 1.61,-18.574 1.28,-2.864 4.78,-4.153 10.22,-4.465 l 14.72,-0.965 0,-9.59 c -11.52,0.32 -24.31,0.969 -39.97,0.969 -15.68,0 -28.46,-0.649 -39.97,-0.969 l 0,9.59 14.72,0.965 c 5.42,0.312 8.95,1.601 10.21,4.465 1.29,3.523 1.61,9.91 1.61,18.574 l 0,165.578"
             style="fill:#ffffff;fill-opacity:1;fill-rule:nonzero;stroke:none"
             id="path3227" /><path
             d="m 2075.63,541.418 c 0,7.352 -0.96,13.102 -7.99,13.102 l -17.91,0 0,8.953 c 16.95,2.55 33.9,5.429 49.88,11.836 l 2.88,-2.559 0,-196.91 c 0,-8.664 0.31,-15.051 1.6,-18.574 1.28,-2.864 4.79,-4.153 10.22,-4.465 l 14.7,-0.965 0,-9.59 c -11.5,0.32 -24.29,0.969 -39.95,0.969 -15.66,0 -28.46,-0.649 -39.95,-0.969 l 0,9.59 14.69,0.965 c 5.43,0.312 8.96,1.601 10.23,4.465 1.28,3.523 1.6,9.91 1.6,18.574 l 0,165.578"
             style="fill:#ffffff;fill-opacity:1;fill-rule:nonzero;stroke:none"
             id="path3229" /><path
             d="m 2228.44,525.121 c 0,12.145 -0.64,20.461 -2.88,23.969 -1.91,3.191 -5.76,4.473 -13.42,4.793 l -15.35,0.957 0,9.59 c 16.61,-0.641 31.65,-0.957 47.3,-0.957 14.72,0 29.74,0.316 46.36,0.957 l 0,-9.59 -15.34,-0.957 c -7.67,-0.32 -11.5,-1.602 -13.44,-4.793 -2.22,-3.508 -2.86,-11.824 -2.86,-23.969 l 0,-109.984 c 0,-45.371 23.65,-58.504 65.85,-58.504 34.52,0 65.85,13.133 65.85,66.18 l 0,102.308 c 0,12.145 -0.63,20.461 -2.88,23.969 -1.91,3.191 -5.74,4.156 -13.43,4.793 l -14.05,0.957 -0.01,9.59 c 12.78,-0.321 25.58,-0.957 37.09,-0.957 12.78,0 24.29,0.636 38.37,0.957 l 0,-9.59 -14.08,-0.957 c -7.67,-0.637 -11.51,-1.602 -13.42,-4.793 -2.25,-3.508 -2.89,-11.824 -2.89,-23.969 l 0,-92.406 c 0,-68.41 -25.88,-95.891 -90.47,-95.891 -54.33,0 -86.3,16.289 -86.3,74.797 l 0,113.5"
             style="fill:#ffffff;fill-opacity:1;fill-rule:nonzero;stroke:none"
             id="path3231" /><path
             d="m 2477.49,375.84 c 0,-8.664 0.31,-15.051 1.59,-18.574 1.27,-2.864 4.79,-4.153 10.22,-4.465 l 14.39,-0.965 0,-9.59 c -11.19,0.32 -23.98,0.969 -39.63,0.969 -15.68,0 -28.46,-0.649 -39.65,-0.969 l 0,9.59 14.37,0.965 c 5.44,0.312 8.97,1.601 10.24,4.465 1.28,3.523 1.6,9.91 1.6,18.574 l 0,71.918 c 0,10.23 -0.64,17.262 -2.24,19.816 -1.91,2.559 -5.1,3.516 -11.82,3.516 l -11.83,0 0,8.945 c 18.87,1.918 38.04,7.992 49.86,13.106 l 2.9,-1.282 0,-27.164 0.62,0 23.67,20.45 c 7.01,6.082 13.1,7.996 25.88,7.996 37.4,0 52.76,-20.774 52.76,-55.633 l 0,-61.668 c 0,-8.664 0.32,-15.051 1.59,-18.574 1.28,-2.864 4.8,-4.153 10.24,-4.465 l 13.1,-0.965 0,-9.59 c -8.01,0.32 -17.27,0.969 -26.21,0.969 -8.95,0 -18.23,-0.649 -25.58,-0.969 l 0,90.789 c 0,26.551 -15.02,40.613 -36.77,40.613 -19.5,0 -39.3,-16.937 -39.3,-30.046 l 0,-67.762"
             style="fill:#ffffff;fill-opacity:1;fill-rule:nonzero;stroke:none"
             id="path3233" /><path
             d="m 2677.92,544.93 c 0,-9.254 -8.64,-17.571 -17.91,-17.571 -9.27,0 -17.58,8.317 -17.58,17.571 0,9.273 8.31,17.898 17.58,17.898 9.27,0 17.91,-8.625 17.91,-17.898 z m -2.89,-169.09 c 0,-8.664 0.32,-15.051 1.62,-18.574 1.27,-2.864 4.78,-4.153 10.22,-4.465 l 14.7,-0.965 0,-9.59 c -11.52,0.32 -24.29,0.969 -39.96,0.969 -15.67,0 -28.45,-0.649 -39.96,-0.969 l 0,9.59 14.7,0.965 c 5.43,0.312 8.96,1.601 10.23,4.465 1.29,3.523 1.6,9.91 1.6,18.574 l 0,71.918 c 0,10.23 -0.64,17.262 -2.24,19.816 -1.91,2.559 -5.11,3.516 -11.81,3.516 l -11.84,0 0,8.945 c 18.86,1.918 38.05,7.992 49.85,13.106 l 2.89,-1.282 0,-116.019"
             style="fill:#ffffff;fill-opacity:1;fill-rule:nonzero;stroke:none"
             id="path3235" /><path
             d="m 2801.95,375.84 c -5.44,-11.856 -8.63,-24.004 -13.12,-34.863 l -15.97,0 -54.99,128.828 c -1.92,4.48 -3.84,10.23 -9.93,10.55 l -10.86,0.641 0,8.945 c 12.48,-0.324 24.95,-0.957 37.41,-0.957 12.47,0 24.62,0.633 37.09,0.957 l 0,-8.945 -15.66,-0.641 c -8.33,-0.32 -10.55,-4.792 -5.12,-18.218 l 38.03,-92.078 c 6.72,14.726 13.75,29.746 19.83,44.765 l 13.42,33.891 c 8.63,22.051 8,31.32 -1.6,31.64 l -13.1,0.641 0,8.945 c 9.91,-0.324 20.13,-0.957 30.05,-0.957 9.9,0 20.14,0.633 30.05,0.957 l 0,-8.945 -9.91,-0.641 c -7.99,-0.644 -13.42,-11.824 -17.9,-21.41 l -37.72,-83.105"
             style="fill:#ffffff;fill-opacity:1;fill-rule:nonzero;stroke:none"
             id="path3237" /><path
             d="m 2895.28,429.531 c 26.23,-2.89 53.09,-2.246 76.09,-0.968 0,29.742 -10.87,54.027 -33.87,54.027 -24.62,0 -43.81,-18.211 -42.22,-53.059 z m 104.55,5.106 c 0,-4.473 0,-8.934 -0.65,-13.418 -19.18,-3.203 -38.68,-4.473 -57.85,-4.473 l -46.67,0 c 0,-37.391 18.53,-62.988 57.86,-62.988 15.34,0 27.48,7.676 39.64,15.019 l 4.15,-3.191 -6.38,-10.859 c -2.25,-3.848 -29.43,-17.903 -51.17,-17.903 -48.27,0 -73.84,30.676 -73.84,73.84 0,31.008 8.32,49.559 23.02,61.059 6.07,4.797 12.79,9.593 19.82,12.789 11.19,5.105 20.46,8.629 31.33,8.629 34.85,0 60.74,-22.375 60.74,-58.504"
             style="fill:#ffffff;fill-opacity:1;fill-rule:nonzero;stroke:none"
             id="path3239" /><path
             d="m 3042.98,447.758 c 0,10.23 -0.63,17.262 -2.23,19.816 -1.93,2.559 -5.12,3.516 -11.83,3.516 l -11.84,0 0,8.945 c 18.87,1.918 38.05,7.992 49.88,13.106 l 2.88,-1.282 0,-32.273 0.63,0 17.28,20.449 c 7.67,9.266 18.53,13.106 26.83,13.106 5.44,0 12.16,-1.602 14.71,-3.524 l -2.88,-38.344 -6.71,0 c -3.51,7.672 -10.22,14.704 -21.73,14.704 -14.07,0 -28.13,-14.704 -28.13,-35.176 l 0,-54.961 c 0,-8.664 0.3,-15.051 1.6,-18.574 1.27,-2.864 6.06,-4.153 13.44,-4.465 l 16.61,-0.965 0,-9.59 c -16.61,0.32 -29.42,0.969 -45.08,0.969 -15.66,0 -28.47,-0.649 -39.96,-0.969 l 0,9.59 14.71,0.965 c 5.44,0.312 8.94,1.601 10.22,4.465 1.28,3.523 1.6,9.91 1.6,18.574 l 0,71.918"
             style="fill:#ffffff;fill-opacity:1;fill-rule:nonzero;stroke:none"
             id="path3241" /><path
             d="m 3152.31,388.934 0,-13.094 c 0,-19.844 22.7,-27.199 41.23,-27.199 20.14,0 37.43,11.828 37.43,29.113 0,10.234 -5.46,18.535 -15.37,21.094 -14.06,3.515 -31.64,7.039 -46.97,12.773 -15.37,5.75 -27.19,15.344 -27.19,34.859 0,34.516 30.06,46.661 60.1,46.661 15.03,0 28.77,-3.524 41.26,-7.996 -0.98,-11.497 -1.3,-23.329 -1.6,-36.102 l -8.97,0 0,7.344 c 0,16.617 -18.86,26.203 -37.08,26.203 -27.16,0 -31.33,-15.016 -31.33,-25.879 0,-13.75 10.54,-21.117 34.84,-25.277 38.06,-6.383 55.95,-15.965 55.95,-40.899 0,-35.183 -35.15,-53.711 -70.65,-53.711 -15.33,0 -29.09,2.239 -44.77,7.668 3.21,14.063 3.51,29.422 3.51,44.442 l 9.61,0"
             style="fill:#ffffff;fill-opacity:1;fill-rule:nonzero;stroke:none"
             id="path3243" /><path
             d="m 3328.14,544.93 c 0,-9.254 -8.64,-17.571 -17.91,-17.571 -9.27,0 -17.59,8.317 -17.59,17.571 0,9.273 8.32,17.898 17.59,17.898 9.27,0 17.91,-8.625 17.91,-17.898 z m -2.87,-169.09 c 0,-8.664 0.32,-15.051 1.6,-18.574 1.27,-2.864 4.79,-4.153 10.21,-4.465 l 14.71,-0.965 0,-9.59 c -11.5,0.32 -24.29,0.969 -39.94,0.969 -15.69,0 -28.48,-0.649 -39.98,-0.969 l 0,9.59 14.7,0.965 c 5.44,0.312 8.95,1.601 10.24,4.465 1.26,3.523 1.58,9.91 1.58,18.574 l 0,71.918 c 0,10.23 -0.62,17.262 -2.23,19.816 -1.91,2.559 -5.1,3.516 -11.83,3.516 l -11.82,0 0,8.945 c 18.85,1.918 38.03,7.992 49.87,13.106 l 2.89,-1.282 0,-116.019"
             style="fill:#ffffff;fill-opacity:1;fill-rule:nonzero;stroke:none"
             id="path3245" /><path
             d="m 3358.82,464.059 0,6.707 24.93,11.187 0,22.387 c 0,8.305 -0.33,16.625 -1.28,25.254 11.52,3.515 21.73,8.629 27.19,12.144 l 3.83,-3.515 c -1.9,-14.063 -3.53,-31.969 -3.53,-45.407 l 0,-12.14 43.8,1.914 -2.88,-17.254 -40.92,0 0,-83.734 c 0,-14.747 4.18,-22.09 17.59,-22.09 8.32,0 14.38,3.515 18.86,6.074 l 4.15,-5.441 -15.34,-16.93 c -2.87,-3.195 -14.06,-3.832 -20.77,-3.832 -16.95,0 -31.34,7.98 -31.34,33.871 l 0,92.082 -24.29,-1.277"
             style="fill:#ffffff;fill-opacity:1;fill-rule:nonzero;stroke:none"
             id="path3247" /><path
             d="m 3595.39,464.059 c 4.78,11.824 0,15.336 -11.51,16.296 l -8.32,0.641 0,8.945 c 10.24,-0.324 20.13,-0.957 30.36,-0.957 10.25,0 20.17,0.633 30.38,0.957 l 0,-8.945 -8.95,-0.641 c -7.67,-0.644 -14.71,-10.55 -26.86,-38.683 L 3535.6,292.051 c -10.23,-23.321 -21.74,-39.309 -48.57,-39.309 -5.45,0 -12.49,2.571 -16,4.809 l 7.67,23.953 4.17,0 c 3.83,-3.84 11.82,-7.664 16.3,-7.344 18.53,1.289 28.75,27.195 34.83,41.895 l 7.34,19.48 c -5.42,15.039 -11.81,30.723 -17.89,45.422 l -34.83,83.738 c -5.12,12.145 -9.61,15.016 -16.63,15.66 l -5.75,0.641 0,8.945 c 12.46,-0.324 24.62,-0.957 37.08,-0.957 12.47,0 24.6,0.633 37.08,0.957 l 0,-8.945 -12.15,-0.641 c -8.95,-0.32 -14.39,-3.515 -7.68,-20.769 l 20.45,-53.699 c 4.49,-12.157 9.63,-23.66 16.33,-35.164 l 38.04,93.336"
             style="fill:#ffffff;fill-opacity:1;fill-rule:nonzero;stroke:none"
             id="path3249" /><path
             d="m 456.871,892.441 c -240.152,0 -435.5312,-195.382 -435.5312,-435.539 0,-240.164 195.3792,-435.5543 435.5312,-435.5543 240.172,0 435.563,195.3903 435.563,435.5543 0,240.157 -195.391,435.539 -435.563,435.539 z M 456.871,0 C 204.949,0 0,204.969 0,456.902 0,708.828 204.949,913.777 456.871,913.777 708.805,913.777 913.77,708.828 913.77,456.902 913.77,204.969 708.805,0 456.871,0"
             style="fill:#ffffff;fill-opacity:1;fill-rule:nonzero;stroke:none"
             id="path3251" /><path
             d="m 456.871,778.852 c -177.519,0 -321.945,-144.422 -321.945,-321.95 0,-177.539 144.426,-321.98 321.945,-321.98 177.531,0 321.969,144.441 321.969,321.98 0,177.528 -144.438,321.95 -321.969,321.95 z m 0,-665.122 c -189.211,0 -343.144,153.946 -343.144,343.172 0,189.215 153.933,343.153 343.144,343.153 189.223,0 343.168,-153.938 343.168,-343.153 0,-189.226 -153.945,-343.172 -343.168,-343.172"
             style="fill:#ffffff;fill-opacity:1;fill-rule:nonzero;stroke:none"
             id="path3253" /><path
             d="m 259.984,666.781 -0.027,-271.664 c 0,-136.789 167.91,-221.652 196.977,-235.304 29.019,13.828 196.562,99.406 196.562,230.128 l -0.039,276.883 -393.473,-0.043 z m 197.028,-530.347 -4.254,1.828 c -8.738,3.75 -214.141,93.758 -214.141,256.855 l 0.031,293.004 436.149,0.043 0.039,-298.223 c 0,-156.378 -204.871,-247.832 -213.59,-251.648 l -4.234,-1.859"
             style="fill:#ffffff;fill-opacity:1;fill-rule:nonzero;stroke:none"
             id="path3255" /><path
             d="m 318.648,634.961 c -0.015,-27.051 -0.011,-60.391 0.075,-62.906 0.144,-2.051 2.953,-6.082 10.398,-11.059 10.18,-6.824 24.363,-15.394 31.914,-19.894 7.93,4.429 23.067,13.058 33.246,19.882 2.793,1.868 9.266,6.594 9.375,10.395 l 0.055,1.059 c 0.074,2.324 0.039,35.554 -0.016,62.523 l -85.047,0 z m 42.016,-118.402 -5.199,3.039 c -0.945,0.554 -23.254,13.629 -38.219,23.664 -12.637,8.449 -19.121,17.406 -19.812,27.379 -0.153,2.093 -0.149,41.922 -0.114,75 l 0.008,10.66 127.66,0 0.028,-10.649 c 0.105,-48.148 0.097,-73.367 -0.036,-74.964 -0.296,-10.176 -6.46,-19.168 -18.828,-27.434 -15.078,-10.113 -39.175,-23.258 -40.195,-23.816 l -5.293,-2.879"
             style="fill:#ffffff;fill-opacity:1;fill-rule:nonzero;stroke:none"
             id="path3257" /><path
             d="m 515.93,635.473 c -0.028,-26.981 -0.024,-60.262 0.07,-62.879 0.152,-2.078 2.969,-6.114 10.438,-11.11 10.16,-6.828 24.316,-15.375 31.855,-19.867 7.934,4.422 23.086,13.039 33.277,19.867 2.785,1.86 9.266,6.602 9.352,10.348 l 0.051,1.098 c 0.074,2.324 0.039,35.57 -0.016,62.543 l -85.027,0 z m 41.98,-118.399 -5.195,3.043 c -0.942,0.551 -23.223,13.613 -38.164,23.641 -12.641,8.465 -19.137,17.422 -19.832,27.375 -0.141,1.644 -0.176,26.871 -0.117,75.023 l 0.007,10.657 127.641,0 0.023,-10.645 c 0.11,-48.156 0.098,-73.387 -0.031,-74.988 -0.222,-10.082 -6.375,-19.106 -18.797,-27.426 -15.109,-10.121 -39.226,-23.246 -40.246,-23.805 l -5.289,-2.875"
             style="fill:#ffffff;fill-opacity:1;fill-rule:nonzero;stroke:none"
             id="path3259" /><path
             d="m 240.289,487.895 426.879,0 0,21.125 -426.879,0 0,-21.125 z"
             style="fill:#ffffff;fill-opacity:1;fill-rule:nonzero;stroke:none"
             id="path3261" /><path
             d="m 435.281,282.227 c 0.227,0 0.449,0 0.676,0 10.52,-0.02 16.77,-4.59 20.531,-8.477 3.95,3.926 10.305,8.457 21.063,8.477 13.109,-0.168 22.449,-0.84 32.57,-1.758 9.774,-0.891 19.875,-1.809 34.707,-2.149 6.117,-0.136 11.692,-0.105 16.102,-0.031 l -0.028,158.488 c -1.277,-0.039 -2.664,0 -4.093,0 -5.539,0 -12.063,0.028 -19.891,0.215 -8.063,0.184 -16.914,1.133 -27.168,2.227 -5.664,0.605 -11.758,1.258 -18.324,1.836 -10.781,1.242 -20.449,-0.715 -20.543,-0.742 -5.563,-1.309 -7.285,-3.586 -7.352,-3.68 l -5.988,3.512 -6.852,-3.954 c 0.008,-0.011 0.012,-0.019 0.012,-0.019 -0.055,0 -2.34,2.781 -8.379,4.199 l 0,0 c -0.027,-0.012 -9.621,1.856 -20.015,0.715 -6.786,-0.609 -12.844,-1.262 -18.485,-1.859 -10.289,-1.102 -19.172,-2.051 -27.304,-2.235 -9.688,-0.226 -17.379,-0.207 -23.672,-0.215 -0.094,0 -0.192,0 -0.285,0 l -0.024,-158.488 c 4.43,-0.074 10.016,-0.105 16.113,0.031 14.84,0.34 24.942,1.258 34.711,2.149 9.942,0.898 19.348,1.758 31.918,1.758 z m 21.035,-33.039 c -7.199,0 -11.3,5.07 -13.503,7.792 -2.422,2.989 -3.614,3.84 -7.524,3.899 -11.613,0 -20.144,-0.774 -29.996,-1.66 -9.648,-0.879 -20.59,-1.875 -36.148,-2.227 -15.418,-0.351 -27.368,0.293 -27.872,0.321 l -10.074,0.57 0.028,199.933 10.429,0.239 c 3.207,0.078 6.891,0.074 11.219,0.066 6.129,-0.016 13.668,-0.019 23.141,0.203 7.254,0.168 15.726,1.074 25.543,2.121 5.754,0.614 11.941,1.274 18.609,1.868 13.75,1.554 26.242,-1 26.773,-1.106 3.817,-0.894 7.043,-2.121 9.758,-3.488 2.641,1.344 5.813,2.543 9.602,3.433 0.769,0.157 13.262,2.731 27.269,1.133 6.446,-0.566 12.66,-1.23 18.446,-1.847 9.781,-1.043 18.226,-1.946 25.41,-2.114 9.476,-0.23 17.027,-0.234 23.172,-0.203 4.351,-0.008 8.011,0.008 11.218,-0.066 l 10.426,-0.239 0.031,-199.933 -10.078,-0.57 c -0.5,-0.016 -12.437,-0.672 -27.859,-0.321 -15.551,0.352 -26.488,1.348 -36.145,2.227 -10.031,0.91 -18.683,1.668 -30.601,1.66 -4.172,0 -5.328,-1.328 -7.871,-4.246 -2.422,-2.785 -6.477,-7.445 -13.403,-7.445"
             style="fill:#ffffff;fill-opacity:1;fill-rule:nonzero;stroke:none"
             id="path3263" /><path
             d="m 308.031,596.84 105.531,0 0,17.7539 -105.531,0 0,-17.7539 z"
             style="fill:#ffffff;fill-opacity:1;fill-rule:nonzero;stroke:none"
             id="path3265" /><path
             d="m 308.031,595.051 105.531,0 0,21.3359 -105.531,0 0,-21.3359 z"
             style="fill:#ffffff;fill-opacity:1;fill-rule:nonzero;stroke:none"
             id="path3267" /><path
             d="m 447.141,146.27 17.7539,0 0,358.969 -17.7539,0 0,-358.969 z"
             style="fill:#ffffff;fill-opacity:1;fill-rule:nonzero;stroke:none"
             id="path3269" /><path
             d="m 448.02,146.27 15.9961,0 0,358.969 -15.9961,0 0,-358.969 z"
             style="fill:#ffffff;fill-opacity:1;fill-rule:nonzero;stroke:none"
             id="path3271" /><path
             d="m 603.375,576.063 -46.883,31.261 -43.008,-31.074 -10.398,14.395 53.008,38.289 57.133,-38.106 -9.852,-14.765"
             style="fill:#ffffff;fill-opacity:1;fill-rule:nonzero;stroke:none"
             id="path3273" /><path
             d="m 603.867,574.57 -45.859,30.571 -41.973,-30.34 -12.5,17.293 53.985,39.023 58.183,-38.793 -11.836,-17.754"
             style="fill:#ffffff;fill-opacity:1;fill-rule:nonzero;stroke:none"
             id="path3275" /><path
             d="m 540.895,404.668 c -3.036,0.059 -11.723,0.301 -19.469,0.527 l -7.418,0.203 c -4.274,0.098 -9.184,0.618 -14.863,1.235 -2.813,0.301 -5.825,0.625 -9.051,0.926 -1.699,0.183 -3.278,0.214 -4.684,0.144 l -0.461,11.211 c 1.914,0.098 4.051,0.051 6.258,-0.195 3.211,-0.293 6.277,-0.625 9.145,-0.938 5.316,-0.566 9.918,-1.07 13.945,-1.172 l 7.441,-0.203 c 7.719,-0.215 16.375,-0.461 19.399,-0.527 l -0.242,-11.211"
             style="fill:#ffffff;fill-opacity:1;fill-rule:nonzero;stroke:none"
             id="path3277" /><path
             d="m 540.906,370.477 -26.859,0.675 c -4.223,0.098 -9.027,0.594 -14.559,1.184 -2.906,0.309 -6.027,0.641 -9.383,0.945 -1.761,0.184 -3.347,0.242 -4.757,0.196 l -0.332,11.211 c 1.914,0.097 4.023,0 6.218,-0.247 3.297,-0.293 6.477,-0.632 9.442,-0.945 5.179,-0.558 9.676,-1.035 13.621,-1.133 l 26.824,-0.675 -0.215,-11.211"
             style="fill:#ffffff;fill-opacity:1;fill-rule:nonzero;stroke:none"
             id="path3279" /><path
             d="m 540.934,336.219 c -2.196,0.031 -7.329,0.168 -12.938,0.332 l -13.957,0.375 c -4.172,0.078 -8.949,0.574 -14.449,1.16 -2.934,0.312 -6.082,0.652 -9.477,0.957 -1.715,0.168 -3.32,0.215 -4.73,0.176 l -0.403,11.211 c 1.911,0.078 4.008,0.008 6.204,-0.215 3.386,-0.305 6.597,-0.645 9.597,-0.969 5.125,-0.547 9.578,-1.031 13.489,-1.113 l 14.043,-0.371 c 5.539,-0.157 10.617,-0.293 12.785,-0.332 l -0.164,-11.211"
             style="fill:#ffffff;fill-opacity:1;fill-rule:nonzero;stroke:none"
             id="path3281" /><path
             d="m 540.906,301.973 c -3.879,0.066 -17.027,0.418 -25.609,0.644 l -1.277,0.039 c -4.184,0.098 -8.961,0.606 -14.457,1.184 -2.93,0.308 -6.071,0.652 -9.458,0.957 -1.742,0.191 -3.347,0.242 -4.722,0.191 l -0.403,11.211 c 1.918,0.09 4.051,0 6.254,-0.242 3.329,-0.305 6.532,-0.637 9.512,-0.957 5.156,-0.547 9.629,-1.035 13.555,-1.133 l 1.297,-0.027 c 8.547,-0.227 21.652,-0.578 25.523,-0.656 l -0.215,-11.211"
             style="fill:#ffffff;fill-opacity:1;fill-rule:nonzero;stroke:none"
             id="path3283" /><path
             d="m 372.063,404.961 -0.247,11.211 c 3.965,0.086 17.5,0.449 26.032,0.672 4.965,0.097 9.648,0.617 15.082,1.203 2.773,0.301 5.738,0.625 8.91,0.918 1.953,0.207 3.945,0.32 5.719,0.246 l -0.137,-11.215 c -1.442,0.031 -2.926,-0.035 -4.477,-0.195 -3.175,-0.301 -6.086,-0.613 -8.812,-0.906 -5.754,-0.625 -10.719,-1.165 -15.211,-1.243 -9.32,-0.254 -22.891,-0.613 -26.859,-0.691"
             style="fill:#ffffff;fill-opacity:1;fill-rule:nonzero;stroke:none"
             id="path3285" /><path
             d="m 372.063,370.715 -0.247,11.211 26.872,0.691 c 4.027,0.106 8.625,0.613 13.953,1.192 2.855,0.3 5.918,0.632 9.199,0.949 2.113,0.164 4.098,0.23 5.89,0.152 l -0.48,-11.211 c -1.383,0.059 -2.91,-0.008 -4.457,-0.125 -3.129,-0.293 -6.133,-0.613 -8.941,-0.929 -5.684,-0.614 -10.59,-1.133 -14.899,-1.239 l -26.89,-0.691"
             style="fill:#ffffff;fill-opacity:1;fill-rule:nonzero;stroke:none"
             id="path3287" /><path
             d="m 372.008,336.523 -0.137,11.211 c 4.082,0.047 18.356,0.457 26.785,0.704 3.965,0.046 8.551,0.535 13.864,1.101 2.902,0.305 6.011,0.637 9.343,0.93 1.864,0.234 3.864,0.293 5.696,0.234 l -0.137,-11.211 c -1.371,0.012 -2.859,0.012 -4.387,-0.176 -3.445,-0.312 -6.492,-0.636 -9.336,-0.937 -5.59,-0.598 -10.418,-1.106 -14.812,-1.152 -8.399,-0.247 -22.77,-0.657 -26.879,-0.704"
             style="fill:#ffffff;fill-opacity:1;fill-rule:nonzero;stroke:none"
             id="path3289" /><path
             d="m 372.016,302.227 -0.157,11.211 c 3.848,0.058 16.746,0.417 25.282,0.652 l 1.519,0.043 c 4.11,0.094 8.766,0.613 14.168,1.199 2.801,0.301 5.801,0.633 9.004,0.938 1.906,0.214 3.895,0.253 5.695,0.214 l -0.132,-11.211 c -1.379,-0.011 -2.887,0.008 -4.411,-0.168 -3.242,-0.308 -6.187,-0.625 -8.941,-0.925 -5.766,-0.625 -10.742,-1.164 -15.094,-1.258 l -1.5,-0.051 c -8.586,-0.234 -21.558,-0.598 -25.433,-0.644"
             style="fill:#ffffff;fill-opacity:1;fill-rule:nonzero;stroke:none"
             id="path3291" /><path
             d="m 310.254,403.855 23.2305,0 0,25.5195 -23.2305,0 0,-25.5195 z"
             style="fill:#ffffff;fill-opacity:1;fill-rule:nonzero;stroke:none"
             id="path3293" /><path
             d="m 310.254,344.824 24.4805,0 0,25.5352 -24.4805,0 0,-25.5352 z"
             style="fill:#ffffff;fill-opacity:1;fill-rule:nonzero;stroke:none"
             id="path3295" /><path
             d="m 310.254,292.129 23.2305,0 0,25.4297 -23.2305,0 0,-25.4297 z"
             style="fill:#ffffff;fill-opacity:1;fill-rule:nonzero;stroke:none"
             id="path3297" /><path
             d="m 577.734,398.867 23.2422,0 0,25.457 -23.2422,0 0,-25.457 z"
             style="fill:#ffffff;fill-opacity:1;fill-rule:nonzero;stroke:none"
             id="path3299" /><path
             d="m 577.734,339.824 24.4766,0 0,25.5078 -24.4766,0 0,-25.5078 z"
             style="fill:#ffffff;fill-opacity:1;fill-rule:nonzero;stroke:none"
             id="path3301" /><path
             d="m 577.734,287.078 23.2422,0 0,25.4883 -23.2422,0 0,-25.4883 z"
             style="fill:#ffffff;fill-opacity:1;fill-rule:nonzero;stroke:none"
             id="path3303" /><path
             d="m 98.2422,500.809 c 0.7851,-4.496 1.3672,-9.321 1.0742,-13.926 -1.2344,-19.61 -12.0391,-32.606 -32.7969,-31.301 -21.0351,1.32 -32.0117,14.746 -30.7461,35.281 0.2657,4.004 1.3907,9.235 3.4102,13.563 l 10.3398,-1.52 c -2.9414,-4.449 -3.8203,-8.554 -4.082,-12.902 -0.7851,-12.488 8.3906,-20.902 20.9922,-21.699 12.5078,-0.797 22.3711,6.293 23.1836,19.191 0.3125,4.762 -0.4024,10.473 -1.7109,13.422 l 10.3359,-0.109"
             style="fill:#ffffff;fill-opacity:1;fill-rule:nonzero;stroke:none"
             id="path3305" /><path
             d="m 102.063,553.102 c 3.402,11.953 -6.1138,19.461 -16.7974,22.484 -10.4453,2.984 -22.4843,1.238 -25.7929,-10.402 -3.293,-11.61 6.0351,-19.418 16.4765,-22.371 10.6602,-3.047 22.7071,-1.68 26.1138,10.289 z m -51.8872,14.753 c 5.1836,18.321 20.6484,25.02 38.5625,19.934 17.8987,-5.055 27.8947,-18.887 22.6407,-37.336 -5.32,-18.73 -20.7423,-25.031 -38.9024,-19.89 -18.1641,5.175 -27.5938,18.699 -22.3008,37.292"
             style="fill:#ffffff;fill-opacity:1;fill-rule:nonzero;stroke:none"
             id="path3307" /><path
             d="m 103.523,629.898 1.891,3.536 c 2.828,5.281 5.277,11.777 -1.5,15.371 -6.5429,3.492 -10.2695,-2.227 -13.1327,-7.586 l -1.879,-3.528 14.6207,-7.793 z m -28.8941,1.606 6.1797,11.578 c 6.1055,11.516 13.0234,25.473 28.1364,17.426 6.371,-3.399 9.418,-10.453 6.719,-17.754 l 0.141,-0.117 c 1.793,2.816 5.66,2.918 8.648,2.703 l 25.805,-2.703 -6.363,-11.973 -20.387,2.594 c -4.887,0.613 -7.168,0.07 -9.578,-4.442 l -1.825,-3.468 22.551,-12.028 -5.718,-10.754 -54.3091,28.938"
             style="fill:#ffffff;fill-opacity:1;fill-rule:nonzero;stroke:none"
             id="path3309" /><path
             d="m 116.211,701.805 9.559,11.5 50.183,-11.563 0.117,0.133 -35.422,29.363 7.422,8.985 47.379,-39.289 -9.492,-11.438 -50.25,11.512 -0.098,-0.141 35.414,-29.394 -7.445,-8.946 -47.367,39.278"
             style="fill:#ffffff;fill-opacity:1;fill-rule:nonzero;stroke:none"
             id="path3311" /><path
             d="m 177.867,768.656 27.754,22.594 6.125,-7.516 -18.351,-14.906 9.585,-11.781 16.793,13.691 6.129,-7.515 -16.804,-13.692 10.918,-13.41 18.468,15.047 6.118,-7.52 -27.907,-22.726 -38.828,47.734"
             style="fill:#ffffff;fill-opacity:1;fill-rule:nonzero;stroke:none"
             id="path3313" /><path
             d="m 238.242,813.031 10.621,6 25.418,-45.176 20.524,11.555 4.758,-8.469 -31.165,-17.507 -30.156,53.597"
             style="fill:#ffffff;fill-opacity:1;fill-rule:nonzero;stroke:none"
             id="path3315" /><path
             d="m 300.73,844.375 11.458,4.148 17.625,-48.714 22.152,7.988 3.324,-9.106 -33.617,-12.168 -20.942,57.852"
             style="fill:#ffffff;fill-opacity:1;fill-rule:nonzero;stroke:none"
             id="path3317" /><path
             d="m 398.832,871.109 12.148,1.016 2.911,-35.441 c 0.859,-10.426 4.738,-17.036 14.035,-16.258 9.246,0.754 11.972,7.902 11.097,18.324 l -2.945,35.465 12.149,0.996 3.25,-39.195 c 1.371,-16.442 -7.262,-23.965 -22.782,-25.27 -15.48,-1.273 -25.254,4.731 -26.617,21.164 l -3.246,39.199"
             style="fill:#ffffff;fill-opacity:1;fill-rule:nonzero;stroke:none"
             id="path3319" /><path
             d="m 490.004,874.215 14.824,-2.008 16.766,-48.711 0.187,-0.031 6.133,45.637 11.563,-1.575 -8.239,-60.968 -14.722,1.976 -16.852,48.711 -0.176,0.008 -6.133,-45.574 -11.558,1.539 8.207,60.996"
             style="fill:#ffffff;fill-opacity:1;fill-rule:nonzero;stroke:none"
             id="path3321" /><path
             d="m 577.227,857.504 11.613,-3.641 -18.418,-58.722 -11.617,3.652 18.422,58.711"
             style="fill:#ffffff;fill-opacity:1;fill-rule:nonzero;stroke:none"
             id="path3323" /><path
             d="m 620.504,842.938 11.648,-5.907 -7.91,-50.133 0.16,-0.078 35.543,36.164 10.778,-5.425 -46,-45.715 -13.344,6.742 9.125,64.352"
             style="fill:#ffffff;fill-opacity:1;fill-rule:nonzero;stroke:none"
             id="path3325" /><path
             d="m 700.281,797.543 28.219,-22.094 -5.949,-7.617 -18.633,14.559 -9.34,-11.953 17.039,-13.34 -5.965,-7.649 -17.043,13.348 -10.656,-13.621 18.777,-14.684 -5.96,-7.633 -28.36,22.172 37.871,48.512"
             style="fill:#ffffff;fill-opacity:1;fill-rule:nonzero;stroke:none"
             id="path3327" /><path
             d="m 745.219,722.371 2.636,-3.016 c 3.942,-4.503 9.153,-9.085 14.915,-4.015 5.574,4.871 1.562,10.379 -2.461,14.949 l -2.649,3.012 -12.441,-10.93 z m 11.722,26.473 8.661,-9.852 c 8.609,-9.816 19.199,-21.219 6.347,-32.523 -5.433,-4.754 -13.101,-5.106 -19.004,-0.016 l -0.148,-0.09 c 2.004,-2.664 0.754,-6.312 -0.496,-9.011 l -11.68,-23.204 -8.949,10.192 9.621,18.176 c 2.297,4.328 2.613,6.66 -0.789,10.496 l -2.559,2.949 -19.234,-16.836 -8.035,9.141 46.265,40.578"
             style="fill:#ffffff;fill-opacity:1;fill-rule:nonzero;stroke:none"
             id="path3329" /><path
             d="m 814.391,651.27 c -0.524,4.144 -1.84,8.308 -4.016,11.972 -2.121,3.594 -6.445,7.27 -12.215,3.887 -9.211,-5.441 8.227,-26.051 -9.531,-36.555 -11.602,-6.863 -21.379,-0.402 -27.606,10.129 -3.371,5.703 -4.121,8.692 -5.894,14.594 l 10.144,4.719 c 0.161,-4.778 1.321,-9.661 3.719,-13.758 2.375,-3.992 7.539,-8.082 12.321,-5.227 10.128,5.949 -7.622,26.367 9.921,36.739 11.832,7 21.52,0.492 26.957,-8.704 2.645,-4.48 4.524,-9.027 5.493,-13.589 l -9.293,-4.207"
             style="fill:#ffffff;fill-opacity:1;fill-rule:nonzero;stroke:none"
             id="path3331" /><path
             d="m 841.352,620.645 4.625,-11.286 -57.008,-23.234 -4.578,11.258 56.961,23.262"
             style="fill:#ffffff;fill-opacity:1;fill-rule:nonzero;stroke:none"
             id="path3333" /><path
             d="m 851.949,559.723 -4.176,16.886 9.43,2.309 11.231,-45.613 -9.418,-2.305 -4.161,16.895 -50.339,-12.391 -2.911,11.832 50.344,12.387"
             style="fill:#ffffff;fill-opacity:1;fill-rule:nonzero;stroke:none"
             id="path3335" /><path
             d="m 837.188,480.438 35.914,24.187 0.804,-14.227 -25.023,-15.746 26.629,-13.168 0.699,-12.871 -38.344,19.653 -24.32,-1.34 -0.664,12.16 24.305,1.352"
             style="fill:#ffffff;fill-opacity:1;fill-rule:nonzero;stroke:none"
             id="path3337" /><path
             d="m 107.809,374.051 9.433,-32.742 -9.32,-2.707 -6.047,20.957 -14.5586,-4.219 5.7344,-19.91 -9.3008,-2.707 -5.7422,19.953 -25.9375,-7.5 -3.4219,11.828 59.1606,17.047"
             style="fill:#ffffff;fill-opacity:1;fill-rule:nonzero;stroke:none"
             id="path3339" /><path
             d="m 88.2227,274.785 c 5.5429,-11.308 17.6213,-10.558 27.5973,-5.637 9.746,4.758 17.493,14.18 12.102,25.129 -5.356,10.938 -17.531,10.528 -27.277,5.774 -9.9848,-4.906 -17.9692,-13.996 -12.4223,-25.266 z m 48.4183,23.789 c 8.5,-17.273 1.558,-32.754 -15.172,-40.937 -16.672,-8.223 -33.3792,-4.571 -41.9456,12.871 -8.6992,17.637 -1.4453,32.773 15.4805,41.062 16.9371,8.313 33.0231,4.485 41.6371,-12.996"
             style="fill:#ffffff;fill-opacity:1;fill-rule:nonzero;stroke:none"
             id="path3341" /><path
             d="m 162.813,250.137 7.671,-9.621 -27.804,-22.071 c -8.231,-6.511 -11.528,-13.425 -5.672,-20.777 5.836,-7.395 13.297,-5.734 21.504,0.816 l 27.812,22.11 7.668,-9.649 -30.801,-24.441 c -12.886,-10.254 -23.996,-7.207 -33.804,5.078 -9.778,12.336 -10.254,23.895 2.64,34.148 l 30.786,24.407"
             style="fill:#ffffff;fill-opacity:1;fill-rule:nonzero;stroke:none"
             id="path3343" /><path
             d="m 213.305,191.23 11.722,-9.55 -11.062,-50.41 0.137,-0.079 29.128,35.575 9.133,-7.43 -38.984,-47.625 -11.633,9.5 10.981,50.508 -0.161,0.078 -29.109,-35.586 -9.121,7.43 38.969,47.589"
             style="fill:#ffffff;fill-opacity:1;fill-rule:nonzero;stroke:none"
             id="path3345" /><path
             d="m 263.43,92.3359 6.133,-3.0898 c 9.183,-4.5898 21.488,-2.1953 27.515,9.7969 6.008,11.941 0.613,23.27 -8.586,27.891 l -6.129,3.093 -18.933,-37.6911 z m 12.285,51.8631 15.023,-7.519 c 16.774,-8.457 28.789,-21.575 17.797,-43.4183 C 297.59,71.4453 279.871,73.2539 263.09,81.6875 l -15.004,7.5 27.629,55.0115"
             style="fill:#ffffff;fill-opacity:1;fill-rule:nonzero;stroke:none"
             id="path3347" /><path
             d="m 346.879,112.559 34.98,-9.368 -2.504,-9.3433 -23.089,6.1523 -3.899,-14.6406 21.145,-5.6328 -2.496,-9.3555 -21.157,5.6367 -4.437,-16.7109 23.269,-6.2031 -2.496,-9.375 -35.16,9.375 15.844,59.4652"
             style="fill:#ffffff;fill-opacity:1;fill-rule:nonzero;stroke:none"
             id="path3349" /><path
             d="m 418.238,45.8867 6.856,-0.3789 c 10.273,-0.5781 20.609,6.5235 21.394,19.9219 0.739,13.3594 -8.738,21.582 -18.988,22.168 l -6.824,0.3789 -2.438,-42.0899 z m -9.312,52.4922 16.758,-0.9687 c 18.754,-1.043 34.992,-8.3282 33.597,-32.7032 -1.394,-24.3867 -18.34,-29.7968 -37.097,-28.75 l -16.746,0.9571 3.488,61.4648"
             style="fill:#ffffff;fill-opacity:1;fill-rule:nonzero;stroke:none"
             id="path3351" /><path
             d="m 531.016,92.1563 -0.176,-0.0274 -3.34,-26.668 17.52,3.75 -14.004,22.9454 z m -9.203,10.6637 13.558,2.91 36.484,-55.0855 -13.335,-2.8906 -8.094,12.707 -24.321,-5.2656 -2.292,-14.875 -12.442,-2.6758 10.442,65.1755"
             style="fill:#ffffff;fill-opacity:1;fill-rule:nonzero;stroke:none"
             id="path3353" /><path
             d="m 585.559,69.1484 11.558,4.1797 4.207,-11.5898 -11.551,-4.1719 -4.214,11.582"
             style="fill:#ffffff;fill-opacity:1;fill-rule:nonzero;stroke:none"
             id="path3355" /><path
             d="m 636.723,87.7344 6.015,3.2304 c 9.039,4.9415 14.094,16.3872 7.723,28.1832 -6.383,11.809 -18.762,13.801 -27.809,8.868 l -6.027,-3.25 20.098,-37.0316 z m -35.532,39.7066 14.747,7.989 c 16.542,9.004 34.164,11.297 45.808,-10.168 11.633,-21.492 0.047,-34.969 -16.476,-43.9143 l -14.758,-7.9883 -29.321,54.0816"
             style="fill:#ffffff;fill-opacity:1;fill-rule:nonzero;stroke:none"
             id="path3357" /><path
             d="m 679.578,116.035 10.117,7.051 7.035,-10.156 -10.093,-7.032 -7.059,10.137"
             style="fill:#ffffff;fill-opacity:1;fill-rule:nonzero;stroke:none"
             id="path3359" /><path
             d="m 704.961,200.223 7.734,7.648 43.227,-43.84 -8.75,-8.64 -33.371,33.82 -1.453,-13.285 -10.012,1.387 2.625,22.91"
             style="fill:#ffffff;fill-opacity:1;fill-rule:nonzero;stroke:none"
             id="path3361" /><path
             d="m 785.496,211.914 c 2.961,3.945 2.742,8.879 -1.359,11.926 -4.883,3.609 -10.324,1.168 -14.707,-1.914 -0.891,-4.789 -0.664,-9.211 3.504,-12.328 4.14,-3.047 9.644,-1.637 12.562,2.316 z m -22.512,17.703 c 1.043,3.488 -0.058,8.547 -3.101,10.793 -3.684,2.742 -7.969,2.285 -10.735,-1.457 -2.644,-3.613 -3.332,-8.652 0.622,-11.601 4.277,-3.125 9.441,-0.164 13.214,2.265 z m -2.921,-11.797 c -5.879,-3.3 -12.368,-3.535 -17.559,0.274 -8.844,6.574 -8.074,16.359 -1.449,25.332 6.433,8.683 15.832,13.847 24.113,7.754 4.48,-3.34 7.641,-9.91 5.793,-16.969 l 0.078,-0.063 c 7.848,4.25 14.313,4.075 19.973,-0.105 10.011,-7.383 9.093,-17.844 1.871,-27.609 -7.117,-9.579 -17.043,-14.297 -27.078,-6.817 -5.551,4.074 -7.071,10.02 -5.61,18.098 l -0.132,0.105"
             style="fill:#ffffff;fill-opacity:1;fill-rule:nonzero;stroke:none"
             id="path3363" /><path
             d="m 810.258,271.738 c 5.187,-2.59 10.871,-2.668 13.555,2.766 2.574,5.074 -1.329,9.695 -6.219,12.129 -5.375,2.672 -11.422,2.965 -14.074,-2.328 -2.668,-5.313 1.203,-9.801 6.738,-12.567 z m -17.27,35.684 c -2.711,-2.293 -5.14,-4.758 -6.996,-8.477 -4.722,-9.465 2.488,-17.129 10.535,-21.574 l 0.246,0.117 c -2.503,4.477 -2.531,8.711 -0.23,13.36 5.176,10.371 14.629,12.726 24.805,7.668 11.922,-5.989 16.89,-15.715 10.707,-28.125 -7.629,-15.262 -22.02,-12.325 -34.93,-5.848 -14.953,7.449 -28.945,20.437 -20.062,38.191 1.964,3.993 4.496,7.481 7.703,10.594 l 8.222,-5.906"
             style="fill:#ffffff;fill-opacity:1;fill-rule:nonzero;stroke:none"
             id="path3365" /><path
             d="m 813.531,373.035 -6.722,-22.683 12.504,-4.012 c 0.128,1.441 0.335,3.308 1.023,5.543 2.453,8.281 9.531,17.812 24.816,13.246 11.063,-3.285 17.719,-13.676 13.188,-28.859 -1.344,-4.559 -3.692,-9.622 -5.762,-13.243 l -10.5,3.418 c 2.047,2.508 5.027,6.016 6.543,11.133 1.832,6.172 0.875,13.469 -6.644,15.676 -7.622,2.262 -12.219,-3.684 -14.235,-10.422 -1.086,-3.633 -1.594,-7.238 -1.531,-11.035 l -31.516,10.027 10.051,33.801 8.785,-2.59"
             style="fill:#ffffff;fill-opacity:1;fill-rule:nonzero;stroke:none"
             id="path3367" /></g></g></g><g
       inkscape:label="ink_ext_XXXXXX"
       id="g3377"
       transform="translate(34538.2,-18685.689)"><g
         transform="scale(0.1,0.1)"
         id="g3379"><g
           id="g3381"><g
             clip-path="url(#clipPath3385)"
             id="g3383"><path
               id="path3389"
               style="fill:#ffffff;fill-opacity:1;fill-rule:nonzero;stroke:none"
               d="m 1323.11,354.082 c -18.54,-11.191 -50.19,-17.258 -69.68,-17.258 -76.74,0 -128.52,43.809 -128.52,116.367 0,36.75 14.38,65.86 39,85.993 23.97,19.808 56.57,30.695 92.38,30.695 29.74,0 58.51,-7.691 73.85,-13.121 -3.2,-15.02 -6.07,-31.953 -6.07,-48.59 l -9.91,0 0,23.027 c 0,8.946 -12.79,14.387 -27.49,19.817 -10.23,3.508 -23.98,5.429 -35.81,5.429 -60.1,0 -91.75,-43.796 -91.75,-98.136 0,-63.297 41.88,-104.223 105.18,-104.223 23.01,0 50.19,8.301 64.9,19.172 l 2.88,-3.195 -8.96,-15.977"
               inkscape:connector-curvature="0" /><path
               id="path3391"
               style="fill:#ffffff;fill-opacity:1;fill-rule:nonzero;stroke:none"
               d="m 1373.3,425.371 c 0,-33.555 12.15,-78.008 53.07,-78.008 29.09,0 41.56,29.11 41.56,58.828 0,41.235 -19.5,76.399 -50.2,76.399 -33.88,0 -44.43,-27.485 -44.43,-57.219 z m -29.73,-13.75 c 0,47.965 30.05,81.52 81.51,81.52 40.93,0 72.58,-31.961 72.58,-72.879 0,-48.895 -34.85,-83.438 -83.76,-83.438 -40.28,-1.289 -70.33,30.676 -70.33,74.797"
               inkscape:connector-curvature="0" /><path
               id="path3393"
               style="fill:#ffffff;fill-opacity:1;fill-rule:nonzero;stroke:none"
               d="m 1529.95,447.758 c 0,10.23 -0.65,17.262 -2.24,19.816 -1.92,2.559 -5.13,3.516 -11.84,3.516 l -11.82,0 0,8.945 c 18.87,1.918 38.04,7.992 49.88,13.106 l 2.87,-1.282 0,-32.273 0.64,0 17.27,20.449 c 7.66,9.266 18.53,13.106 26.84,13.106 5.44,0 12.16,-1.602 14.71,-3.524 l -2.87,-38.344 -6.72,0 c -3.52,7.672 -10.23,14.704 -21.73,14.704 -14.08,0 -28.14,-14.704 -28.14,-35.176 l 0,-54.961 c 0,-8.664 0.32,-15.051 1.6,-18.574 1.27,-2.864 6.07,-4.153 13.43,-4.465 l 16.62,-0.965 0,-9.59 c -16.62,0.32 -29.41,0.969 -45.09,0.969 -15.65,0 -28.44,-0.649 -39.95,-0.969 l 0,9.59 14.7,0.965 c 5.44,0.312 8.96,1.601 10.23,4.465 1.28,3.523 1.61,9.91 1.61,18.574 l 0,71.918"
               inkscape:connector-curvature="0" /><path
               id="path3395"
               style="fill:#ffffff;fill-opacity:1;fill-rule:nonzero;stroke:none"
               d="m 1679.56,375.84 c 0,-8.664 0.32,-15.051 1.59,-18.574 1.28,-2.864 4.8,-4.153 10.24,-4.465 l 14.38,-0.965 0,-9.59 c -11.19,0.32 -23.98,0.969 -39.64,0.969 -15.67,0 -28.45,-0.649 -39.64,-0.969 l 0,9.59 14.38,0.965 c 5.43,0.312 8.95,1.601 10.24,4.465 1.26,3.523 1.59,9.91 1.59,18.574 l 0,71.918 c 0,10.23 -0.64,17.262 -2.24,19.816 -1.92,2.559 -5.11,3.516 -11.83,3.516 l -11.82,0 0,8.945 c 18.86,1.918 38.04,7.992 49.86,13.106 l 2.89,-1.282 0,-27.164 0.63,0 23.66,20.45 c 7.03,6.082 13.11,7.996 25.9,7.996 37.4,0 52.74,-20.774 52.74,-55.633 l 0,-61.668 c 0,-8.664 0.32,-15.051 1.6,-18.574 1.28,-2.864 4.8,-4.153 10.23,-4.465 l 13.11,-0.965 0,-9.59 c -8,0.32 -17.26,0.969 -26.21,0.969 -8.96,0 -18.24,-0.649 -25.58,-0.969 l 0,90.789 c 0,26.551 -15.02,40.613 -36.76,40.613 -19.5,0 -39.32,-16.937 -39.32,-30.046 l 0,-67.762"
               inkscape:connector-curvature="0" /><path
               id="path3397"
               style="fill:#ffffff;fill-opacity:1;fill-rule:nonzero;stroke:none"
               d="m 1844.51,429.531 c 26.21,-2.89 53.06,-2.246 76.09,-0.968 0,29.742 -10.87,54.027 -33.9,54.027 -24.62,0 -43.79,-18.211 -42.19,-53.059 z m 104.54,5.106 c 0,-4.473 0,-8.934 -0.65,-13.418 -19.18,-3.203 -38.67,-4.473 -57.86,-4.473 l -46.67,0 c 0,-37.391 18.54,-62.988 57.86,-62.988 15.34,0 27.49,7.676 39.64,15.019 l 4.15,-3.191 -6.39,-10.859 c -2.24,-3.848 -29.4,-17.903 -51.15,-17.903 -48.27,0 -73.84,30.676 -73.84,73.84 0,31.008 8.31,49.559 23.01,61.059 6.08,4.797 12.8,9.593 19.84,12.789 11.17,5.105 20.45,8.629 31.32,8.629 34.84,0 60.74,-22.375 60.74,-58.504"
               inkscape:connector-curvature="0" /><path
               id="path3399"
               style="fill:#ffffff;fill-opacity:1;fill-rule:nonzero;stroke:none"
               d="m 1981.01,541.418 c 0,7.352 -0.96,13.102 -7.99,13.102 l -17.91,0 0,8.953 c 16.96,2.55 33.9,5.429 49.89,11.836 l 2.86,-2.559 0,-196.91 c 0,-8.664 0.32,-15.051 1.61,-18.574 1.28,-2.864 4.78,-4.153 10.22,-4.465 l 14.72,-0.965 0,-9.59 c -11.52,0.32 -24.31,0.969 -39.97,0.969 -15.68,0 -28.46,-0.649 -39.97,-0.969 l 0,9.59 14.72,0.965 c 5.42,0.312 8.95,1.601 10.21,4.465 1.29,3.523 1.61,9.91 1.61,18.574 l 0,165.578"
               inkscape:connector-curvature="0" /><path
               id="path3401"
               style="fill:#ffffff;fill-opacity:1;fill-rule:nonzero;stroke:none"
               d="m 2075.63,541.418 c 0,7.352 -0.96,13.102 -7.99,13.102 l -17.91,0 0,8.953 c 16.95,2.55 33.9,5.429 49.88,11.836 l 2.88,-2.559 0,-196.91 c 0,-8.664 0.31,-15.051 1.6,-18.574 1.28,-2.864 4.79,-4.153 10.22,-4.465 l 14.7,-0.965 0,-9.59 c -11.5,0.32 -24.29,0.969 -39.95,0.969 -15.66,0 -28.46,-0.649 -39.95,-0.969 l 0,9.59 14.69,0.965 c 5.43,0.312 8.96,1.601 10.23,4.465 1.28,3.523 1.6,9.91 1.6,18.574 l 0,165.578"
               inkscape:connector-curvature="0" /><path
               id="path3403"
               style="fill:#ffffff;fill-opacity:1;fill-rule:nonzero;stroke:none"
               d="m 2228.44,525.121 c 0,12.145 -0.64,20.461 -2.88,23.969 -1.91,3.191 -5.76,4.473 -13.42,4.793 l -15.35,0.957 0,9.59 c 16.61,-0.641 31.65,-0.957 47.3,-0.957 14.72,0 29.74,0.316 46.36,0.957 l 0,-9.59 -15.34,-0.957 c -7.67,-0.32 -11.5,-1.602 -13.44,-4.793 -2.22,-3.508 -2.86,-11.824 -2.86,-23.969 l 0,-109.984 c 0,-45.371 23.65,-58.504 65.85,-58.504 34.52,0 65.85,13.133 65.85,66.18 l 0,102.308 c 0,12.145 -0.63,20.461 -2.88,23.969 -1.91,3.191 -5.74,4.156 -13.43,4.793 l -14.05,0.957 -0.01,9.59 c 12.78,-0.321 25.58,-0.957 37.09,-0.957 12.78,0 24.29,0.636 38.37,0.957 l 0,-9.59 -14.08,-0.957 c -7.67,-0.637 -11.51,-1.602 -13.42,-4.793 -2.25,-3.508 -2.89,-11.824 -2.89,-23.969 l 0,-92.406 c 0,-68.41 -25.88,-95.891 -90.47,-95.891 -54.33,0 -86.3,16.289 -86.3,74.797 l 0,113.5"
               inkscape:connector-curvature="0" /><path
               id="path3405"
               style="fill:#ffffff;fill-opacity:1;fill-rule:nonzero;stroke:none"
               d="m 2477.49,375.84 c 0,-8.664 0.31,-15.051 1.59,-18.574 1.27,-2.864 4.79,-4.153 10.22,-4.465 l 14.39,-0.965 0,-9.59 c -11.19,0.32 -23.98,0.969 -39.63,0.969 -15.68,0 -28.46,-0.649 -39.65,-0.969 l 0,9.59 14.37,0.965 c 5.44,0.312 8.97,1.601 10.24,4.465 1.28,3.523 1.6,9.91 1.6,18.574 l 0,71.918 c 0,10.23 -0.64,17.262 -2.24,19.816 -1.91,2.559 -5.1,3.516 -11.82,3.516 l -11.83,0 0,8.945 c 18.87,1.918 38.04,7.992 49.86,13.106 l 2.9,-1.282 0,-27.164 0.62,0 23.67,20.45 c 7.01,6.082 13.1,7.996 25.88,7.996 37.4,0 52.76,-20.774 52.76,-55.633 l 0,-61.668 c 0,-8.664 0.32,-15.051 1.59,-18.574 1.28,-2.864 4.8,-4.153 10.24,-4.465 l 13.1,-0.965 0,-9.59 c -8.01,0.32 -17.27,0.969 -26.21,0.969 -8.95,0 -18.23,-0.649 -25.58,-0.969 l 0,90.789 c 0,26.551 -15.02,40.613 -36.77,40.613 -19.5,0 -39.3,-16.937 -39.3,-30.046 l 0,-67.762"
               inkscape:connector-curvature="0" /><path
               id="path3407"
               style="fill:#ffffff;fill-opacity:1;fill-rule:nonzero;stroke:none"
               d="m 2677.92,544.93 c 0,-9.254 -8.64,-17.571 -17.91,-17.571 -9.27,0 -17.58,8.317 -17.58,17.571 0,9.273 8.31,17.898 17.58,17.898 9.27,0 17.91,-8.625 17.91,-17.898 z m -2.89,-169.09 c 0,-8.664 0.32,-15.051 1.62,-18.574 1.27,-2.864 4.78,-4.153 10.22,-4.465 l 14.7,-0.965 0,-9.59 c -11.52,0.32 -24.29,0.969 -39.96,0.969 -15.67,0 -28.45,-0.649 -39.96,-0.969 l 0,9.59 14.7,0.965 c 5.43,0.312 8.96,1.601 10.23,4.465 1.29,3.523 1.6,9.91 1.6,18.574 l 0,71.918 c 0,10.23 -0.64,17.262 -2.24,19.816 -1.91,2.559 -5.11,3.516 -11.81,3.516 l -11.84,0 0,8.945 c 18.86,1.918 38.05,7.992 49.85,13.106 l 2.89,-1.282 0,-116.019"
               inkscape:connector-curvature="0" /><path
               id="path3409"
               style="fill:#ffffff;fill-opacity:1;fill-rule:nonzero;stroke:none"
               d="m 2801.95,375.84 c -5.44,-11.856 -8.63,-24.004 -13.12,-34.863 l -15.97,0 -54.99,128.828 c -1.92,4.48 -3.84,10.23 -9.93,10.55 l -10.86,0.641 0,8.945 c 12.48,-0.324 24.95,-0.957 37.41,-0.957 12.47,0 24.62,0.633 37.09,0.957 l 0,-8.945 -15.66,-0.641 c -8.33,-0.32 -10.55,-4.792 -5.12,-18.218 l 38.03,-92.078 c 6.72,14.726 13.75,29.746 19.83,44.765 l 13.42,33.891 c 8.63,22.051 8,31.32 -1.6,31.64 l -13.1,0.641 0,8.945 c 9.91,-0.324 20.13,-0.957 30.05,-0.957 9.9,0 20.14,0.633 30.05,0.957 l 0,-8.945 -9.91,-0.641 c -7.99,-0.644 -13.42,-11.824 -17.9,-21.41 l -37.72,-83.105"
               inkscape:connector-curvature="0" /><path
               id="path3411"
               style="fill:#ffffff;fill-opacity:1;fill-rule:nonzero;stroke:none"
               d="m 2895.28,429.531 c 26.23,-2.89 53.09,-2.246 76.09,-0.968 0,29.742 -10.87,54.027 -33.87,54.027 -24.62,0 -43.81,-18.211 -42.22,-53.059 z m 104.55,5.106 c 0,-4.473 0,-8.934 -0.65,-13.418 -19.18,-3.203 -38.68,-4.473 -57.85,-4.473 l -46.67,0 c 0,-37.391 18.53,-62.988 57.86,-62.988 15.34,0 27.48,7.676 39.64,15.019 l 4.15,-3.191 -6.38,-10.859 c -2.25,-3.848 -29.43,-17.903 -51.17,-17.903 -48.27,0 -73.84,30.676 -73.84,73.84 0,31.008 8.32,49.559 23.02,61.059 6.07,4.797 12.79,9.593 19.82,12.789 11.19,5.105 20.46,8.629 31.33,8.629 34.85,0 60.74,-22.375 60.74,-58.504"
               inkscape:connector-curvature="0" /><path
               id="path3413"
               style="fill:#ffffff;fill-opacity:1;fill-rule:nonzero;stroke:none"
               d="m 3042.98,447.758 c 0,10.23 -0.63,17.262 -2.23,19.816 -1.93,2.559 -5.12,3.516 -11.83,3.516 l -11.84,0 0,8.945 c 18.87,1.918 38.05,7.992 49.88,13.106 l 2.88,-1.282 0,-32.273 0.63,0 17.28,20.449 c 7.67,9.266 18.53,13.106 26.83,13.106 5.44,0 12.16,-1.602 14.71,-3.524 l -2.88,-38.344 -6.71,0 c -3.51,7.672 -10.22,14.704 -21.73,14.704 -14.07,0 -28.13,-14.704 -28.13,-35.176 l 0,-54.961 c 0,-8.664 0.3,-15.051 1.6,-18.574 1.27,-2.864 6.06,-4.153 13.44,-4.465 l 16.61,-0.965 0,-9.59 c -16.61,0.32 -29.42,0.969 -45.08,0.969 -15.66,0 -28.47,-0.649 -39.96,-0.969 l 0,9.59 14.71,0.965 c 5.44,0.312 8.94,1.601 10.22,4.465 1.28,3.523 1.6,9.91 1.6,18.574 l 0,71.918"
               inkscape:connector-curvature="0" /><path
               id="path3415"
               style="fill:#ffffff;fill-opacity:1;fill-rule:nonzero;stroke:none"
               d="m 3152.31,388.934 0,-13.094 c 0,-19.844 22.7,-27.199 41.23,-27.199 20.14,0 37.43,11.828 37.43,29.113 0,10.234 -5.46,18.535 -15.37,21.094 -14.06,3.515 -31.64,7.039 -46.97,12.773 -15.37,5.75 -27.19,15.344 -27.19,34.859 0,34.516 30.06,46.661 60.1,46.661 15.03,0 28.77,-3.524 41.26,-7.996 -0.98,-11.497 -1.3,-23.329 -1.6,-36.102 l -8.97,0 0,7.344 c 0,16.617 -18.86,26.203 -37.08,26.203 -27.16,0 -31.33,-15.016 -31.33,-25.879 0,-13.75 10.54,-21.117 34.84,-25.277 38.06,-6.383 55.95,-15.965 55.95,-40.899 0,-35.183 -35.15,-53.711 -70.65,-53.711 -15.33,0 -29.09,2.239 -44.77,7.668 3.21,14.063 3.51,29.422 3.51,44.442 l 9.61,0"
               inkscape:connector-curvature="0" /><path
               id="path3417"
               style="fill:#ffffff;fill-opacity:1;fill-rule:nonzero;stroke:none"
               d="m 3328.14,544.93 c 0,-9.254 -8.64,-17.571 -17.91,-17.571 -9.27,0 -17.59,8.317 -17.59,17.571 0,9.273 8.32,17.898 17.59,17.898 9.27,0 17.91,-8.625 17.91,-17.898 z m -2.87,-169.09 c 0,-8.664 0.32,-15.051 1.6,-18.574 1.27,-2.864 4.79,-4.153 10.21,-4.465 l 14.71,-0.965 0,-9.59 c -11.5,0.32 -24.29,0.969 -39.94,0.969 -15.69,0 -28.48,-0.649 -39.98,-0.969 l 0,9.59 14.7,0.965 c 5.44,0.312 8.95,1.601 10.24,4.465 1.26,3.523 1.58,9.91 1.58,18.574 l 0,71.918 c 0,10.23 -0.62,17.262 -2.23,19.816 -1.91,2.559 -5.1,3.516 -11.83,3.516 l -11.82,0 0,8.945 c 18.85,1.918 38.03,7.992 49.87,13.106 l 2.89,-1.282 0,-116.019"
               inkscape:connector-curvature="0" /><path
               id="path3419"
               style="fill:#ffffff;fill-opacity:1;fill-rule:nonzero;stroke:none"
               d="m 3358.82,464.059 0,6.707 24.93,11.187 0,22.387 c 0,8.305 -0.33,16.625 -1.28,25.254 11.52,3.515 21.73,8.629 27.19,12.144 l 3.83,-3.515 c -1.9,-14.063 -3.53,-31.969 -3.53,-45.407 l 0,-12.14 43.8,1.914 -2.88,-17.254 -40.92,0 0,-83.734 c 0,-14.747 4.18,-22.09 17.59,-22.09 8.32,0 14.38,3.515 18.86,6.074 l 4.15,-5.441 -15.34,-16.93 c -2.87,-3.195 -14.06,-3.832 -20.77,-3.832 -16.95,0 -31.34,7.98 -31.34,33.871 l 0,92.082 -24.29,-1.277"
               inkscape:connector-curvature="0" /><path
               id="path3421"
               style="fill:#ffffff;fill-opacity:1;fill-rule:nonzero;stroke:none"
               d="m 3595.39,464.059 c 4.78,11.824 0,15.336 -11.51,16.296 l -8.32,0.641 0,8.945 c 10.24,-0.324 20.13,-0.957 30.36,-0.957 10.25,0 20.17,0.633 30.38,0.957 l 0,-8.945 -8.95,-0.641 c -7.67,-0.644 -14.71,-10.55 -26.86,-38.683 L 3535.6,292.051 c -10.23,-23.321 -21.74,-39.309 -48.57,-39.309 -5.45,0 -12.49,2.571 -16,4.809 l 7.67,23.953 4.17,0 c 3.83,-3.84 11.82,-7.664 16.3,-7.344 18.53,1.289 28.75,27.195 34.83,41.895 l 7.34,19.48 c -5.42,15.039 -11.81,30.723 -17.89,45.422 l -34.83,83.738 c -5.12,12.145 -9.61,15.016 -16.63,15.66 l -5.75,0.641 0,8.945 c 12.46,-0.324 24.62,-0.957 37.08,-0.957 12.47,0 24.6,0.633 37.08,0.957 l 0,-8.945 -12.15,-0.641 c -8.95,-0.32 -14.39,-3.515 -7.68,-20.769 l 20.45,-53.699 c 4.49,-12.157 9.63,-23.66 16.33,-35.164 l 38.04,93.336"
               inkscape:connector-curvature="0" /><path
               id="path3423"
               style="fill:#ffffff;fill-opacity:1;fill-rule:nonzero;stroke:none"
               d="m 456.871,892.441 c -240.152,0 -435.5312,-195.382 -435.5312,-435.539 0,-240.164 195.3792,-435.5543 435.5312,-435.5543 240.172,0 435.563,195.3903 435.563,435.5543 0,240.157 -195.391,435.539 -435.563,435.539 z M 456.871,0 C 204.949,0 0,204.969 0,456.902 0,708.828 204.949,913.777 456.871,913.777 708.805,913.777 913.77,708.828 913.77,456.902 913.77,204.969 708.805,0 456.871,0"
               inkscape:connector-curvature="0" /><path
               id="path3425"
               style="fill:#ffffff;fill-opacity:1;fill-rule:nonzero;stroke:none"
               d="m 456.871,778.852 c -177.519,0 -321.945,-144.422 -321.945,-321.95 0,-177.539 144.426,-321.98 321.945,-321.98 177.531,0 321.969,144.441 321.969,321.98 0,177.528 -144.438,321.95 -321.969,321.95 z m 0,-665.122 c -189.211,0 -343.144,153.946 -343.144,343.172 0,189.215 153.933,343.153 343.144,343.153 189.223,0 343.168,-153.938 343.168,-343.153 0,-189.226 -153.945,-343.172 -343.168,-343.172"
               inkscape:connector-curvature="0" /><path
               id="path3427"
               style="fill:#ffffff;fill-opacity:1;fill-rule:nonzero;stroke:none"
               d="m 259.984,666.781 -0.027,-271.664 c 0,-136.789 167.91,-221.652 196.977,-235.304 29.019,13.828 196.562,99.406 196.562,230.128 l -0.039,276.883 -393.473,-0.043 z m 197.028,-530.347 -4.254,1.828 c -8.738,3.75 -214.141,93.758 -214.141,256.855 l 0.031,293.004 436.149,0.043 0.039,-298.223 c 0,-156.378 -204.871,-247.832 -213.59,-251.648 l -4.234,-1.859"
               inkscape:connector-curvature="0" /><path
               id="path3429"
               style="fill:#ffffff;fill-opacity:1;fill-rule:nonzero;stroke:none"
               d="m 318.648,634.961 c -0.015,-27.051 -0.011,-60.391 0.075,-62.906 0.144,-2.051 2.953,-6.082 10.398,-11.059 10.18,-6.824 24.363,-15.394 31.914,-19.894 7.93,4.429 23.067,13.058 33.246,19.882 2.793,1.868 9.266,6.594 9.375,10.395 l 0.055,1.059 c 0.074,2.324 0.039,35.554 -0.016,62.523 l -85.047,0 z m 42.016,-118.402 -5.199,3.039 c -0.945,0.554 -23.254,13.629 -38.219,23.664 -12.637,8.449 -19.121,17.406 -19.812,27.379 -0.153,2.093 -0.149,41.922 -0.114,75 l 0.008,10.66 127.66,0 0.028,-10.649 c 0.105,-48.148 0.097,-73.367 -0.036,-74.964 -0.296,-10.176 -6.46,-19.168 -18.828,-27.434 -15.078,-10.113 -39.175,-23.258 -40.195,-23.816 l -5.293,-2.879"
               inkscape:connector-curvature="0" /><path
               id="path3431"
               style="fill:#ffffff;fill-opacity:1;fill-rule:nonzero;stroke:none"
               d="m 515.93,635.473 c -0.028,-26.981 -0.024,-60.262 0.07,-62.879 0.152,-2.078 2.969,-6.114 10.438,-11.11 10.16,-6.828 24.316,-15.375 31.855,-19.867 7.934,4.422 23.086,13.039 33.277,19.867 2.785,1.86 9.266,6.602 9.352,10.348 l 0.051,1.098 c 0.074,2.324 0.039,35.57 -0.016,62.543 l -85.027,0 z m 41.98,-118.399 -5.195,3.043 c -0.942,0.551 -23.223,13.613 -38.164,23.641 -12.641,8.465 -19.137,17.422 -19.832,27.375 -0.141,1.644 -0.176,26.871 -0.117,75.023 l 0.007,10.657 127.641,0 0.023,-10.645 c 0.11,-48.156 0.098,-73.387 -0.031,-74.988 -0.222,-10.082 -6.375,-19.106 -18.797,-27.426 -15.109,-10.121 -39.226,-23.246 -40.246,-23.805 l -5.289,-2.875"
               inkscape:connector-curvature="0" /><path
               id="path3433"
               style="fill:#ffffff;fill-opacity:1;fill-rule:nonzero;stroke:none"
               d="m 240.289,487.895 426.879,0 0,21.125 -426.879,0 0,-21.125 z"
               inkscape:connector-curvature="0" /><path
               id="path3435"
               style="fill:#ffffff;fill-opacity:1;fill-rule:nonzero;stroke:none"
               d="m 435.281,282.227 c 0.227,0 0.449,0 0.676,0 10.52,-0.02 16.77,-4.59 20.531,-8.477 3.95,3.926 10.305,8.457 21.063,8.477 13.109,-0.168 22.449,-0.84 32.57,-1.758 9.774,-0.891 19.875,-1.809 34.707,-2.149 6.117,-0.136 11.692,-0.105 16.102,-0.031 l -0.028,158.488 c -1.277,-0.039 -2.664,0 -4.093,0 -5.539,0 -12.063,0.028 -19.891,0.215 -8.063,0.184 -16.914,1.133 -27.168,2.227 -5.664,0.605 -11.758,1.258 -18.324,1.836 -10.781,1.242 -20.449,-0.715 -20.543,-0.742 -5.563,-1.309 -7.285,-3.586 -7.352,-3.68 l -5.988,3.512 -6.852,-3.954 c 0.008,-0.011 0.012,-0.019 0.012,-0.019 -0.055,0 -2.34,2.781 -8.379,4.199 l 0,0 c -0.027,-0.012 -9.621,1.856 -20.015,0.715 -6.786,-0.609 -12.844,-1.262 -18.485,-1.859 -10.289,-1.102 -19.172,-2.051 -27.304,-2.235 -9.688,-0.226 -17.379,-0.207 -23.672,-0.215 -0.094,0 -0.192,0 -0.285,0 l -0.024,-158.488 c 4.43,-0.074 10.016,-0.105 16.113,0.031 14.84,0.34 24.942,1.258 34.711,2.149 9.942,0.898 19.348,1.758 31.918,1.758 z m 21.035,-33.039 c -7.199,0 -11.3,5.07 -13.503,7.792 -2.422,2.989 -3.614,3.84 -7.524,3.899 -11.613,0 -20.144,-0.774 -29.996,-1.66 -9.648,-0.879 -20.59,-1.875 -36.148,-2.227 -15.418,-0.351 -27.368,0.293 -27.872,0.321 l -10.074,0.57 0.028,199.933 10.429,0.239 c 3.207,0.078 6.891,0.074 11.219,0.066 6.129,-0.016 13.668,-0.019 23.141,0.203 7.254,0.168 15.726,1.074 25.543,2.121 5.754,0.614 11.941,1.274 18.609,1.868 13.75,1.554 26.242,-1 26.773,-1.106 3.817,-0.894 7.043,-2.121 9.758,-3.488 2.641,1.344 5.813,2.543 9.602,3.433 0.769,0.157 13.262,2.731 27.269,1.133 6.446,-0.566 12.66,-1.23 18.446,-1.847 9.781,-1.043 18.226,-1.946 25.41,-2.114 9.476,-0.23 17.027,-0.234 23.172,-0.203 4.351,-0.008 8.011,0.008 11.218,-0.066 l 10.426,-0.239 0.031,-199.933 -10.078,-0.57 c -0.5,-0.016 -12.437,-0.672 -27.859,-0.321 -15.551,0.352 -26.488,1.348 -36.145,2.227 -10.031,0.91 -18.683,1.668 -30.601,1.66 -4.172,0 -5.328,-1.328 -7.871,-4.246 -2.422,-2.785 -6.477,-7.445 -13.403,-7.445"
               inkscape:connector-curvature="0" /><path
               id="path3437"
               style="fill:#ffffff;fill-opacity:1;fill-rule:nonzero;stroke:none"
               d="m 308.031,596.84 105.531,0 0,17.7539 -105.531,0 0,-17.7539 z"
               inkscape:connector-curvature="0" /><path
               id="path3439"
               style="fill:#ffffff;fill-opacity:1;fill-rule:nonzero;stroke:none"
               d="m 308.031,595.051 105.531,0 0,21.3359 -105.531,0 0,-21.3359 z"
               inkscape:connector-curvature="0" /><path
               id="path3441"
               style="fill:#ffffff;fill-opacity:1;fill-rule:nonzero;stroke:none"
               d="m 447.141,146.27 17.7539,0 0,358.969 -17.7539,0 0,-358.969 z"
               inkscape:connector-curvature="0" /><path
               id="path3443"
               style="fill:#ffffff;fill-opacity:1;fill-rule:nonzero;stroke:none"
               d="m 448.02,146.27 15.9961,0 0,358.969 -15.9961,0 0,-358.969 z"
               inkscape:connector-curvature="0" /><path
               id="path3445"
               style="fill:#ffffff;fill-opacity:1;fill-rule:nonzero;stroke:none"
               d="m 603.375,576.063 -46.883,31.261 -43.008,-31.074 -10.398,14.395 53.008,38.289 57.133,-38.106 -9.852,-14.765"
               inkscape:connector-curvature="0" /><path
               id="path3447"
               style="fill:#ffffff;fill-opacity:1;fill-rule:nonzero;stroke:none"
               d="m 603.867,574.57 -45.859,30.571 -41.973,-30.34 -12.5,17.293 53.985,39.023 58.183,-38.793 -11.836,-17.754"
               inkscape:connector-curvature="0" /><path
               id="path3449"
               style="fill:#ffffff;fill-opacity:1;fill-rule:nonzero;stroke:none"
               d="m 540.895,404.668 c -3.036,0.059 -11.723,0.301 -19.469,0.527 l -7.418,0.203 c -4.274,0.098 -9.184,0.618 -14.863,1.235 -2.813,0.301 -5.825,0.625 -9.051,0.926 -1.699,0.183 -3.278,0.214 -4.684,0.144 l -0.461,11.211 c 1.914,0.098 4.051,0.051 6.258,-0.195 3.211,-0.293 6.277,-0.625 9.145,-0.938 5.316,-0.566 9.918,-1.07 13.945,-1.172 l 7.441,-0.203 c 7.719,-0.215 16.375,-0.461 19.399,-0.527 l -0.242,-11.211"
               inkscape:connector-curvature="0" /><path
               id="path3451"
               style="fill:#ffffff;fill-opacity:1;fill-rule:nonzero;stroke:none"
               d="m 540.906,370.477 -26.859,0.675 c -4.223,0.098 -9.027,0.594 -14.559,1.184 -2.906,0.309 -6.027,0.641 -9.383,0.945 -1.761,0.184 -3.347,0.242 -4.757,0.196 l -0.332,11.211 c 1.914,0.097 4.023,0 6.218,-0.247 3.297,-0.293 6.477,-0.632 9.442,-0.945 5.179,-0.558 9.676,-1.035 13.621,-1.133 l 26.824,-0.675 -0.215,-11.211"
               inkscape:connector-curvature="0" /><path
               id="path3453"
               style="fill:#ffffff;fill-opacity:1;fill-rule:nonzero;stroke:none"
               d="m 540.934,336.219 c -2.196,0.031 -7.329,0.168 -12.938,0.332 l -13.957,0.375 c -4.172,0.078 -8.949,0.574 -14.449,1.16 -2.934,0.312 -6.082,0.652 -9.477,0.957 -1.715,0.168 -3.32,0.215 -4.73,0.176 l -0.403,11.211 c 1.911,0.078 4.008,0.008 6.204,-0.215 3.386,-0.305 6.597,-0.645 9.597,-0.969 5.125,-0.547 9.578,-1.031 13.489,-1.113 l 14.043,-0.371 c 5.539,-0.157 10.617,-0.293 12.785,-0.332 l -0.164,-11.211"
               inkscape:connector-curvature="0" /><path
               id="path3455"
               style="fill:#ffffff;fill-opacity:1;fill-rule:nonzero;stroke:none"
               d="m 540.906,301.973 c -3.879,0.066 -17.027,0.418 -25.609,0.644 l -1.277,0.039 c -4.184,0.098 -8.961,0.606 -14.457,1.184 -2.93,0.308 -6.071,0.652 -9.458,0.957 -1.742,0.191 -3.347,0.242 -4.722,0.191 l -0.403,11.211 c 1.918,0.09 4.051,0 6.254,-0.242 3.329,-0.305 6.532,-0.637 9.512,-0.957 5.156,-0.547 9.629,-1.035 13.555,-1.133 l 1.297,-0.027 c 8.547,-0.227 21.652,-0.578 25.523,-0.656 l -0.215,-11.211"
               inkscape:connector-curvature="0" /><path
               id="path3457"
               style="fill:#ffffff;fill-opacity:1;fill-rule:nonzero;stroke:none"
               d="m 372.063,404.961 -0.247,11.211 c 3.965,0.086 17.5,0.449 26.032,0.672 4.965,0.097 9.648,0.617 15.082,1.203 2.773,0.301 5.738,0.625 8.91,0.918 1.953,0.207 3.945,0.32 5.719,0.246 l -0.137,-11.215 c -1.442,0.031 -2.926,-0.035 -4.477,-0.195 -3.175,-0.301 -6.086,-0.613 -8.812,-0.906 -5.754,-0.625 -10.719,-1.165 -15.211,-1.243 -9.32,-0.254 -22.891,-0.613 -26.859,-0.691"
               inkscape:connector-curvature="0" /><path
               id="path3459"
               style="fill:#ffffff;fill-opacity:1;fill-rule:nonzero;stroke:none"
               d="m 372.063,370.715 -0.247,11.211 26.872,0.691 c 4.027,0.106 8.625,0.613 13.953,1.192 2.855,0.3 5.918,0.632 9.199,0.949 2.113,0.164 4.098,0.23 5.89,0.152 l -0.48,-11.211 c -1.383,0.059 -2.91,-0.008 -4.457,-0.125 -3.129,-0.293 -6.133,-0.613 -8.941,-0.929 -5.684,-0.614 -10.59,-1.133 -14.899,-1.239 l -26.89,-0.691"
               inkscape:connector-curvature="0" /><path
               id="path3461"
               style="fill:#ffffff;fill-opacity:1;fill-rule:nonzero;stroke:none"
               d="m 372.008,336.523 -0.137,11.211 c 4.082,0.047 18.356,0.457 26.785,0.704 3.965,0.046 8.551,0.535 13.864,1.101 2.902,0.305 6.011,0.637 9.343,0.93 1.864,0.234 3.864,0.293 5.696,0.234 l -0.137,-11.211 c -1.371,0.012 -2.859,0.012 -4.387,-0.176 -3.445,-0.312 -6.492,-0.636 -9.336,-0.937 -5.59,-0.598 -10.418,-1.106 -14.812,-1.152 -8.399,-0.247 -22.77,-0.657 -26.879,-0.704"
               inkscape:connector-curvature="0" /><path
               id="path3463"
               style="fill:#ffffff;fill-opacity:1;fill-rule:nonzero;stroke:none"
               d="m 372.016,302.227 -0.157,11.211 c 3.848,0.058 16.746,0.417 25.282,0.652 l 1.519,0.043 c 4.11,0.094 8.766,0.613 14.168,1.199 2.801,0.301 5.801,0.633 9.004,0.938 1.906,0.214 3.895,0.253 5.695,0.214 l -0.132,-11.211 c -1.379,-0.011 -2.887,0.008 -4.411,-0.168 -3.242,-0.308 -6.187,-0.625 -8.941,-0.925 -5.766,-0.625 -10.742,-1.164 -15.094,-1.258 l -1.5,-0.051 c -8.586,-0.234 -21.558,-0.598 -25.433,-0.644"
               inkscape:connector-curvature="0" /><path
               id="path3465"
               style="fill:#ffffff;fill-opacity:1;fill-rule:nonzero;stroke:none"
               d="m 310.254,403.855 23.2305,0 0,25.5195 -23.2305,0 0,-25.5195 z"
               inkscape:connector-curvature="0" /><path
               id="path3467"
               style="fill:#ffffff;fill-opacity:1;fill-rule:nonzero;stroke:none"
               d="m 310.254,344.824 24.4805,0 0,25.5352 -24.4805,0 0,-25.5352 z"
               inkscape:connector-curvature="0" /><path
               id="path3469"
               style="fill:#ffffff;fill-opacity:1;fill-rule:nonzero;stroke:none"
               d="m 310.254,292.129 23.2305,0 0,25.4297 -23.2305,0 0,-25.4297 z"
               inkscape:connector-curvature="0" /><path
               id="path3471"
               style="fill:#ffffff;fill-opacity:1;fill-rule:nonzero;stroke:none"
               d="m 577.734,398.867 23.2422,0 0,25.457 -23.2422,0 0,-25.457 z"
               inkscape:connector-curvature="0" /><path
               id="path3473"
               style="fill:#ffffff;fill-opacity:1;fill-rule:nonzero;stroke:none"
               d="m 577.734,339.824 24.4766,0 0,25.5078 -24.4766,0 0,-25.5078 z"
               inkscape:connector-curvature="0" /><path
               id="path3475"
               style="fill:#ffffff;fill-opacity:1;fill-rule:nonzero;stroke:none"
               d="m 577.734,287.078 23.2422,0 0,25.4883 -23.2422,0 0,-25.4883 z"
               inkscape:connector-curvature="0" /><path
               id="path3477"
               style="fill:#ffffff;fill-opacity:1;fill-rule:nonzero;stroke:none"
               d="m 98.2422,500.809 c 0.7851,-4.496 1.3672,-9.321 1.0742,-13.926 -1.2344,-19.61 -12.0391,-32.606 -32.7969,-31.301 -21.0351,1.32 -32.0117,14.746 -30.7461,35.281 0.2657,4.004 1.3907,9.235 3.4102,13.563 l 10.3398,-1.52 c -2.9414,-4.449 -3.8203,-8.554 -4.082,-12.902 -0.7851,-12.488 8.3906,-20.902 20.9922,-21.699 12.5078,-0.797 22.3711,6.293 23.1836,19.191 0.3125,4.762 -0.4024,10.473 -1.7109,13.422 l 10.3359,-0.109"
               inkscape:connector-curvature="0" /><path
               id="path3479"
               style="fill:#ffffff;fill-opacity:1;fill-rule:nonzero;stroke:none"
               d="m 102.063,553.102 c 3.402,11.953 -6.1138,19.461 -16.7974,22.484 -10.4453,2.984 -22.4843,1.238 -25.7929,-10.402 -3.293,-11.61 6.0351,-19.418 16.4765,-22.371 10.6602,-3.047 22.7071,-1.68 26.1138,10.289 z m -51.8872,14.753 c 5.1836,18.321 20.6484,25.02 38.5625,19.934 17.8987,-5.055 27.8947,-18.887 22.6407,-37.336 -5.32,-18.73 -20.7423,-25.031 -38.9024,-19.89 -18.1641,5.175 -27.5938,18.699 -22.3008,37.292"
               inkscape:connector-curvature="0" /><path
               id="path3481"
               style="fill:#ffffff;fill-opacity:1;fill-rule:nonzero;stroke:none"
               d="m 103.523,629.898 1.891,3.536 c 2.828,5.281 5.277,11.777 -1.5,15.371 -6.5429,3.492 -10.2695,-2.227 -13.1327,-7.586 l -1.879,-3.528 14.6207,-7.793 z m -28.8941,1.606 6.1797,11.578 c 6.1055,11.516 13.0234,25.473 28.1364,17.426 6.371,-3.399 9.418,-10.453 6.719,-17.754 l 0.141,-0.117 c 1.793,2.816 5.66,2.918 8.648,2.703 l 25.805,-2.703 -6.363,-11.973 -20.387,2.594 c -4.887,0.613 -7.168,0.07 -9.578,-4.442 l -1.825,-3.468 22.551,-12.028 -5.718,-10.754 -54.3091,28.938"
               inkscape:connector-curvature="0" /><path
               id="path3483"
               style="fill:#ffffff;fill-opacity:1;fill-rule:nonzero;stroke:none"
               d="m 116.211,701.805 9.559,11.5 50.183,-11.563 0.117,0.133 -35.422,29.363 7.422,8.985 47.379,-39.289 -9.492,-11.438 -50.25,11.512 -0.098,-0.141 35.414,-29.394 -7.445,-8.946 -47.367,39.278"
               inkscape:connector-curvature="0" /><path
               id="path3485"
               style="fill:#ffffff;fill-opacity:1;fill-rule:nonzero;stroke:none"
               d="m 177.867,768.656 27.754,22.594 6.125,-7.516 -18.351,-14.906 9.585,-11.781 16.793,13.691 6.129,-7.515 -16.804,-13.692 10.918,-13.41 18.468,15.047 6.118,-7.52 -27.907,-22.726 -38.828,47.734"
               inkscape:connector-curvature="0" /><path
               id="path3487"
               style="fill:#ffffff;fill-opacity:1;fill-rule:nonzero;stroke:none"
               d="m 238.242,813.031 10.621,6 25.418,-45.176 20.524,11.555 4.758,-8.469 -31.165,-17.507 -30.156,53.597"
               inkscape:connector-curvature="0" /><path
               id="path3489"
               style="fill:#ffffff;fill-opacity:1;fill-rule:nonzero;stroke:none"
               d="m 300.73,844.375 11.458,4.148 17.625,-48.714 22.152,7.988 3.324,-9.106 -33.617,-12.168 -20.942,57.852"
               inkscape:connector-curvature="0" /><path
               id="path3491"
               style="fill:#ffffff;fill-opacity:1;fill-rule:nonzero;stroke:none"
               d="m 398.832,871.109 12.148,1.016 2.911,-35.441 c 0.859,-10.426 4.738,-17.036 14.035,-16.258 9.246,0.754 11.972,7.902 11.097,18.324 l -2.945,35.465 12.149,0.996 3.25,-39.195 c 1.371,-16.442 -7.262,-23.965 -22.782,-25.27 -15.48,-1.273 -25.254,4.731 -26.617,21.164 l -3.246,39.199"
               inkscape:connector-curvature="0" /><path
               id="path3493"
               style="fill:#ffffff;fill-opacity:1;fill-rule:nonzero;stroke:none"
               d="m 490.004,874.215 14.824,-2.008 16.766,-48.711 0.187,-0.031 6.133,45.637 11.563,-1.575 -8.239,-60.968 -14.722,1.976 -16.852,48.711 -0.176,0.008 -6.133,-45.574 -11.558,1.539 8.207,60.996"
               inkscape:connector-curvature="0" /><path
               id="path3495"
               style="fill:#ffffff;fill-opacity:1;fill-rule:nonzero;stroke:none"
               d="m 577.227,857.504 11.613,-3.641 -18.418,-58.722 -11.617,3.652 18.422,58.711"
               inkscape:connector-curvature="0" /><path
               id="path3497"
               style="fill:#ffffff;fill-opacity:1;fill-rule:nonzero;stroke:none"
               d="m 620.504,842.938 11.648,-5.907 -7.91,-50.133 0.16,-0.078 35.543,36.164 10.778,-5.425 -46,-45.715 -13.344,6.742 9.125,64.352"
               inkscape:connector-curvature="0" /><path
               id="path3499"
               style="fill:#ffffff;fill-opacity:1;fill-rule:nonzero;stroke:none"
               d="m 700.281,797.543 28.219,-22.094 -5.949,-7.617 -18.633,14.559 -9.34,-11.953 17.039,-13.34 -5.965,-7.649 -17.043,13.348 -10.656,-13.621 18.777,-14.684 -5.96,-7.633 -28.36,22.172 37.871,48.512"
               inkscape:connector-curvature="0" /><path
               id="path3501"
               style="fill:#ffffff;fill-opacity:1;fill-rule:nonzero;stroke:none"
               d="m 745.219,722.371 2.636,-3.016 c 3.942,-4.503 9.153,-9.085 14.915,-4.015 5.574,4.871 1.562,10.379 -2.461,14.949 l -2.649,3.012 -12.441,-10.93 z m 11.722,26.473 8.661,-9.852 c 8.609,-9.816 19.199,-21.219 6.347,-32.523 -5.433,-4.754 -13.101,-5.106 -19.004,-0.016 l -0.148,-0.09 c 2.004,-2.664 0.754,-6.312 -0.496,-9.011 l -11.68,-23.204 -8.949,10.192 9.621,18.176 c 2.297,4.328 2.613,6.66 -0.789,10.496 l -2.559,2.949 -19.234,-16.836 -8.035,9.141 46.265,40.578"
               inkscape:connector-curvature="0" /><path
               id="path3503"
               style="fill:#ffffff;fill-opacity:1;fill-rule:nonzero;stroke:none"
               d="m 814.391,651.27 c -0.524,4.144 -1.84,8.308 -4.016,11.972 -2.121,3.594 -6.445,7.27 -12.215,3.887 -9.211,-5.441 8.227,-26.051 -9.531,-36.555 -11.602,-6.863 -21.379,-0.402 -27.606,10.129 -3.371,5.703 -4.121,8.692 -5.894,14.594 l 10.144,4.719 c 0.161,-4.778 1.321,-9.661 3.719,-13.758 2.375,-3.992 7.539,-8.082 12.321,-5.227 10.128,5.949 -7.622,26.367 9.921,36.739 11.832,7 21.52,0.492 26.957,-8.704 2.645,-4.48 4.524,-9.027 5.493,-13.589 l -9.293,-4.207"
               inkscape:connector-curvature="0" /><path
               id="path3505"
               style="fill:#ffffff;fill-opacity:1;fill-rule:nonzero;stroke:none"
               d="m 841.352,620.645 4.625,-11.286 -57.008,-23.234 -4.578,11.258 56.961,23.262"
               inkscape:connector-curvature="0" /><path
               id="path3507"
               style="fill:#ffffff;fill-opacity:1;fill-rule:nonzero;stroke:none"
               d="m 851.949,559.723 -4.176,16.886 9.43,2.309 11.231,-45.613 -9.418,-2.305 -4.161,16.895 -50.339,-12.391 -2.911,11.832 50.344,12.387"
               inkscape:connector-curvature="0" /><path
               id="path3509"
               style="fill:#ffffff;fill-opacity:1;fill-rule:nonzero;stroke:none"
               d="m 837.188,480.438 35.914,24.187 0.804,-14.227 -25.023,-15.746 26.629,-13.168 0.699,-12.871 -38.344,19.653 -24.32,-1.34 -0.664,12.16 24.305,1.352"
               inkscape:connector-curvature="0" /><path
               id="path3511"
               style="fill:#ffffff;fill-opacity:1;fill-rule:nonzero;stroke:none"
               d="m 107.809,374.051 9.433,-32.742 -9.32,-2.707 -6.047,20.957 -14.5586,-4.219 5.7344,-19.91 -9.3008,-2.707 -5.7422,19.953 -25.9375,-7.5 -3.4219,11.828 59.1606,17.047"
               inkscape:connector-curvature="0" /><path
               id="path3513"
               style="fill:#ffffff;fill-opacity:1;fill-rule:nonzero;stroke:none"
               d="m 88.2227,274.785 c 5.5429,-11.308 17.6213,-10.558 27.5973,-5.637 9.746,4.758 17.493,14.18 12.102,25.129 -5.356,10.938 -17.531,10.528 -27.277,5.774 -9.9848,-4.906 -17.9692,-13.996 -12.4223,-25.266 z m 48.4183,23.789 c 8.5,-17.273 1.558,-32.754 -15.172,-40.937 -16.672,-8.223 -33.3792,-4.571 -41.9456,12.871 -8.6992,17.637 -1.4453,32.773 15.4805,41.062 16.9371,8.313 33.0231,4.485 41.6371,-12.996"
               inkscape:connector-curvature="0" /><path
               id="path3515"
               style="fill:#ffffff;fill-opacity:1;fill-rule:nonzero;stroke:none"
               d="m 162.813,250.137 7.671,-9.621 -27.804,-22.071 c -8.231,-6.511 -11.528,-13.425 -5.672,-20.777 5.836,-7.395 13.297,-5.734 21.504,0.816 l 27.812,22.11 7.668,-9.649 -30.801,-24.441 c -12.886,-10.254 -23.996,-7.207 -33.804,5.078 -9.778,12.336 -10.254,23.895 2.64,34.148 l 30.786,24.407"
               inkscape:connector-curvature="0" /><path
               id="path3517"
               style="fill:#ffffff;fill-opacity:1;fill-rule:nonzero;stroke:none"
               d="m 213.305,191.23 11.722,-9.55 -11.062,-50.41 0.137,-0.079 29.128,35.575 9.133,-7.43 -38.984,-47.625 -11.633,9.5 10.981,50.508 -0.161,0.078 -29.109,-35.586 -9.121,7.43 38.969,47.589"
               inkscape:connector-curvature="0" /><path
               id="path3519"
               style="fill:#ffffff;fill-opacity:1;fill-rule:nonzero;stroke:none"
               d="m 263.43,92.3359 6.133,-3.0898 c 9.183,-4.5898 21.488,-2.1953 27.515,9.7969 6.008,11.941 0.613,23.27 -8.586,27.891 l -6.129,3.093 -18.933,-37.6911 z m 12.285,51.8631 15.023,-7.519 c 16.774,-8.457 28.789,-21.575 17.797,-43.4183 C 297.59,71.4453 279.871,73.2539 263.09,81.6875 l -15.004,7.5 27.629,55.0115"
               inkscape:connector-curvature="0" /><path
               id="path3521"
               style="fill:#ffffff;fill-opacity:1;fill-rule:nonzero;stroke:none"
               d="m 346.879,112.559 34.98,-9.368 -2.504,-9.3433 -23.089,6.1523 -3.899,-14.6406 21.145,-5.6328 -2.496,-9.3555 -21.157,5.6367 -4.437,-16.7109 23.269,-6.2031 -2.496,-9.375 -35.16,9.375 15.844,59.4652"
               inkscape:connector-curvature="0" /><path
               id="path3523"
               style="fill:#ffffff;fill-opacity:1;fill-rule:nonzero;stroke:none"
               d="m 418.238,45.8867 6.856,-0.3789 c 10.273,-0.5781 20.609,6.5235 21.394,19.9219 0.739,13.3594 -8.738,21.582 -18.988,22.168 l -6.824,0.3789 -2.438,-42.0899 z m -9.312,52.4922 16.758,-0.9687 c 18.754,-1.043 34.992,-8.3282 33.597,-32.7032 -1.394,-24.3867 -18.34,-29.7968 -37.097,-28.75 l -16.746,0.9571 3.488,61.4648"
               inkscape:connector-curvature="0" /><path
               id="path3525"
               style="fill:#ffffff;fill-opacity:1;fill-rule:nonzero;stroke:none"
               d="m 531.016,92.1563 -0.176,-0.0274 -3.34,-26.668 17.52,3.75 -14.004,22.9454 z m -9.203,10.6637 13.558,2.91 36.484,-55.0855 -13.335,-2.8906 -8.094,12.707 -24.321,-5.2656 -2.292,-14.875 -12.442,-2.6758 10.442,65.1755"
               inkscape:connector-curvature="0" /><path
               id="path3527"
               style="fill:#ffffff;fill-opacity:1;fill-rule:nonzero;stroke:none"
               d="m 585.559,69.1484 11.558,4.1797 4.207,-11.5898 -11.551,-4.1719 -4.214,11.582"
               inkscape:connector-curvature="0" /><path
               id="path3529"
               style="fill:#ffffff;fill-opacity:1;fill-rule:nonzero;stroke:none"
               d="m 636.723,87.7344 6.015,3.2304 c 9.039,4.9415 14.094,16.3872 7.723,28.1832 -6.383,11.809 -18.762,13.801 -27.809,8.868 l -6.027,-3.25 20.098,-37.0316 z m -35.532,39.7066 14.747,7.989 c 16.542,9.004 34.164,11.297 45.808,-10.168 11.633,-21.492 0.047,-34.969 -16.476,-43.9143 l -14.758,-7.9883 -29.321,54.0816"
               inkscape:connector-curvature="0" /><path
               id="path3531"
               style="fill:#ffffff;fill-opacity:1;fill-rule:nonzero;stroke:none"
               d="m 679.578,116.035 10.117,7.051 7.035,-10.156 -10.093,-7.032 -7.059,10.137"
               inkscape:connector-curvature="0" /><path
               id="path3533"
               style="fill:#ffffff;fill-opacity:1;fill-rule:nonzero;stroke:none"
               d="m 704.961,200.223 7.734,7.648 43.227,-43.84 -8.75,-8.64 -33.371,33.82 -1.453,-13.285 -10.012,1.387 2.625,22.91"
               inkscape:connector-curvature="0" /><path
               id="path3535"
               style="fill:#ffffff;fill-opacity:1;fill-rule:nonzero;stroke:none"
               d="m 785.496,211.914 c 2.961,3.945 2.742,8.879 -1.359,11.926 -4.883,3.609 -10.324,1.168 -14.707,-1.914 -0.891,-4.789 -0.664,-9.211 3.504,-12.328 4.14,-3.047 9.644,-1.637 12.562,2.316 z m -22.512,17.703 c 1.043,3.488 -0.058,8.547 -3.101,10.793 -3.684,2.742 -7.969,2.285 -10.735,-1.457 -2.644,-3.613 -3.332,-8.652 0.622,-11.601 4.277,-3.125 9.441,-0.164 13.214,2.265 z m -2.921,-11.797 c -5.879,-3.3 -12.368,-3.535 -17.559,0.274 -8.844,6.574 -8.074,16.359 -1.449,25.332 6.433,8.683 15.832,13.847 24.113,7.754 4.48,-3.34 7.641,-9.91 5.793,-16.969 l 0.078,-0.063 c 7.848,4.25 14.313,4.075 19.973,-0.105 10.011,-7.383 9.093,-17.844 1.871,-27.609 -7.117,-9.579 -17.043,-14.297 -27.078,-6.817 -5.551,4.074 -7.071,10.02 -5.61,18.098 l -0.132,0.105"
               inkscape:connector-curvature="0" /><path
               id="path3537"
               style="fill:#ffffff;fill-opacity:1;fill-rule:nonzero;stroke:none"
               d="m 810.258,271.738 c 5.187,-2.59 10.871,-2.668 13.555,2.766 2.574,5.074 -1.329,9.695 -6.219,12.129 -5.375,2.672 -11.422,2.965 -14.074,-2.328 -2.668,-5.313 1.203,-9.801 6.738,-12.567 z m -17.27,35.684 c -2.711,-2.293 -5.14,-4.758 -6.996,-8.477 -4.722,-9.465 2.488,-17.129 10.535,-21.574 l 0.246,0.117 c -2.503,4.477 -2.531,8.711 -0.23,13.36 5.176,10.371 14.629,12.726 24.805,7.668 11.922,-5.989 16.89,-15.715 10.707,-28.125 -7.629,-15.262 -22.02,-12.325 -34.93,-5.848 -14.953,7.449 -28.945,20.437 -20.062,38.191 1.964,3.993 4.496,7.481 7.703,10.594 l 8.222,-5.906"
               inkscape:connector-curvature="0" /><path
               id="path3539"
               style="fill:#ffffff;fill-opacity:1;fill-rule:nonzero;stroke:none"
               d="m 813.531,373.035 -6.722,-22.683 12.504,-4.012 c 0.128,1.441 0.335,3.308 1.023,5.543 2.453,8.281 9.531,17.812 24.816,13.246 11.063,-3.285 17.719,-13.676 13.188,-28.859 -1.344,-4.559 -3.692,-9.622 -5.762,-13.243 l -10.5,3.418 c 2.047,2.508 5.027,6.016 6.543,11.133 1.832,6.172 0.875,13.469 -6.644,15.676 -7.622,2.262 -12.219,-3.684 -14.235,-10.422 -1.086,-3.633 -1.594,-7.238 -1.531,-11.035 l -31.516,10.027 10.051,33.801 8.785,-2.59"
               inkscape:connector-curvature="0" /></g></g></g></g></g></svg>